<svg width="38" height="50" viewBox="0 0 38 50" fill="none" xmlns="http://www.w3.org/2000/svg">
<ellipse opacity="0.5" cx="19.0041" cy="42.4572" rx="14.5155" ry="7.22649" fill="#B91C1C"/>
<g filter="url(#filter0_d_204_694)">
<path d="M18.9999 1C10.1776 1 3 8.3348 3 17.3503C3 24.2402 7.19217 30.148 13.1066 32.551L18.0293 42.8687C18.2472 43.3255 18.6433 43.5981 19.0886 43.5981C19.5357 43.5981 19.934 43.3228 20.1536 42.8622L25.1211 32.4557C30.915 29.9948 35 24.1512 35 17.3501C34.9998 8.3348 27.8222 1 18.9999 1ZM18.9999 25.6486C14.515 25.6486 10.8793 21.9333 10.8793 17.3503C10.8793 12.7673 14.515 9.05181 18.9999 9.05181C23.4848 9.05181 27.1206 12.7671 27.1206 17.3503C27.1206 21.9334 23.4848 25.6486 18.9999 25.6486Z" fill="#B91C1C"/>
<path d="M17.8036 42.9764L17.8036 42.9764C18.0561 43.5053 18.5316 43.8481 19.0886 43.8481C19.6479 43.8481 20.1254 43.5021 20.3792 42.9699C20.3792 42.9699 20.3792 42.9698 20.3793 42.9698L25.3061 32.6484C31.1448 30.1274 35.25 24.2187 35.25 17.3501C35.2498 8.20186 27.9654 0.75 18.9999 0.75C10.0345 0.75 2.75 8.20186 2.75 17.3503C2.75 24.3081 6.96247 30.2818 12.9225 32.7457L17.8036 42.9764ZM18.9999 25.3986C14.6581 25.3986 11.1293 21.8003 11.1293 17.3503C11.1293 12.9003 14.6581 9.30181 18.9999 9.30181C23.3417 9.30181 26.8706 12.9001 26.8706 17.3503C26.8706 21.8005 23.3417 25.3986 18.9999 25.3986Z" stroke="white" stroke-width="0.5"/>
</g>
<defs>
<filter id="filter0_d_204_694" x="0.5" y="0.5" width="37" height="47.5981" filterUnits="userSpaceOnUse" color-interpolation-filters="sRGB">
<feFlood flood-opacity="0" result="BackgroundImageFix"/>
<feColorMatrix in="SourceAlpha" type="matrix" values="0 0 0 0 0 0 0 0 0 0 0 0 0 0 0 0 0 0 127 0" result="hardAlpha"/>
<feOffset dy="2"/>
<feGaussianBlur stdDeviation="1"/>
<feComposite in2="hardAlpha" operator="out"/>
<feColorMatrix type="matrix" values="0 0 0 0 0 0 0 0 0 0 0 0 0 0 0 0 0 0 0.15 0"/>
<feBlend mode="normal" in2="BackgroundImageFix" result="effect1_dropShadow_204_694"/>
<feBlend mode="normal" in="SourceGraphic" in2="effect1_dropShadow_204_694" result="shape"/>
</filter>
</defs>
</svg>
