<svg width="36" height="50" viewBox="0 0 36 50" fill="none" xmlns="http://www.w3.org/2000/svg">
<ellipse opacity="0.5" cx="18.0041" cy="42.5767" rx="14.5155" ry="7.22649" fill="#0369A1"/>
<g filter="url(#filter0_d_187_670)">
<path d="M17.9999 0C9.17761 0 2 7.3348 2 16.3503C2 23.2402 6.19217 29.148 12.1066 31.551L17.0293 41.8687C17.2472 42.3255 17.6433 42.5981 18.0886 42.5981C18.5357 42.5981 18.934 42.3228 19.1536 41.8622L24.1211 31.4557C29.915 28.9948 34 23.1512 34 16.3501C33.9998 7.3348 26.8222 0 17.9999 0ZM17.9999 24.6486C13.515 24.6486 9.87926 20.9333 9.87926 16.3503C9.87926 11.7673 13.515 8.05181 17.9999 8.05181C22.4848 8.05181 26.1206 11.7671 26.1206 16.3503C26.1206 20.9334 22.4848 24.6486 17.9999 24.6486Z" fill="#00A3E4"/>
<path d="M12.3322 31.4433L12.2905 31.3558L12.2007 31.3193C6.37942 28.9542 2.25 23.1372 2.25 16.3503C2.25 7.46773 9.32076 0.25 17.9999 0.25C26.6791 0.25 33.7498 7.46774 33.75 16.3501C33.75 23.0496 29.7262 28.8034 24.0234 31.2256L23.9363 31.2626L23.8955 31.348L18.928 41.7545L18.9279 41.7546C18.7425 42.1436 18.4234 42.3481 18.0886 42.3481C17.755 42.3481 17.4384 42.1456 17.2549 41.7611L12.3322 31.4433ZM9.62926 16.3503C9.62926 21.0662 13.3718 24.8986 17.9999 24.8986C22.628 24.8986 26.3706 21.0664 26.3706 16.3503C26.3706 11.6342 22.628 7.80181 17.9999 7.80181C13.3718 7.80181 9.62926 11.6344 9.62926 16.3503Z" stroke="white" stroke-width="0.5"/>
</g>
<defs>
<filter id="filter0_d_187_670" x="0" y="0" width="36" height="46.5981" filterUnits="userSpaceOnUse" color-interpolation-filters="sRGB">
<feFlood flood-opacity="0" result="BackgroundImageFix"/>
<feColorMatrix in="SourceAlpha" type="matrix" values="0 0 0 0 0 0 0 0 0 0 0 0 0 0 0 0 0 0 127 0" result="hardAlpha"/>
<feOffset dy="2"/>
<feGaussianBlur stdDeviation="1"/>
<feComposite in2="hardAlpha" operator="out"/>
<feColorMatrix type="matrix" values="0 0 0 0 0 0 0 0 0 0 0 0 0 0 0 0 0 0 0.15 0"/>
<feBlend mode="normal" in2="BackgroundImageFix" result="effect1_dropShadow_187_670"/>
<feBlend mode="normal" in="SourceGraphic" in2="effect1_dropShadow_187_670" result="shape"/>
</filter>
</defs>
</svg>
