<svg width="36" height="49" viewBox="0 0 36 49" fill="none" xmlns="http://www.w3.org/2000/svg">
<ellipse opacity="0.5" cx="18.0041" cy="41.4572" rx="14.5155" ry="7.22649" fill="#005B4C"/>
<g filter="url(#filter0_d_204_698)">
<path d="M17.9999 0C9.17761 0 2 7.3348 2 16.3503C2 23.2402 6.19217 29.148 12.1066 31.551L17.0293 41.8687C17.2472 42.3255 17.6433 42.5981 18.0886 42.5981C18.5357 42.5981 18.934 42.3228 19.1536 41.8622L24.1211 31.4557C29.915 28.9948 34 23.1512 34 16.3501C33.9998 7.3348 26.8222 0 17.9999 0ZM17.9999 24.6486C13.515 24.6486 9.87926 20.9333 9.87926 16.3503C9.87926 11.7673 13.515 8.05181 17.9999 8.05181C22.4848 8.05181 26.1206 11.7671 26.1206 16.3503C26.1206 20.9334 22.4848 24.6486 17.9999 24.6486Z" fill="#005B4C"/>
<path d="M12.3322 31.4433L12.2905 31.3558L12.2007 31.3194C6.37942 28.9542 2.25 23.1372 2.25 16.3503C2.25 7.46773 9.32076 0.25 17.9999 0.25C26.6791 0.25 33.7498 7.46774 33.75 16.3501C33.75 23.0496 29.7262 28.8034 24.0234 31.2256L23.9363 31.2626L23.8955 31.348L18.928 41.7545L18.9279 41.7546C18.7425 42.1436 18.4234 42.3481 18.0886 42.3481C17.755 42.3481 17.4384 42.1456 17.2549 41.7611L12.3322 31.4433ZM9.62926 16.3503C9.62926 21.0662 13.3718 24.8986 17.9999 24.8986C22.628 24.8986 26.3706 21.0664 26.3706 16.3503C26.3706 11.6342 22.628 7.80181 17.9999 7.80181C13.3718 7.80181 9.62926 11.6344 9.62926 16.3503Z" stroke="white" stroke-width="0.5"/>
</g>
<path d="M29 15.5C29 21.299 24.299 26 18.5 26C12.701 26 8 21.299 8 15.5C8 9.70101 12.701 5 18.5 5C24.299 5 29 9.70101 29 15.5Z" fill="#005B4C"/>
<path fill-rule="evenodd" clip-rule="evenodd" d="M18.5 12.0739C17.4791 12.0739 16.4675 12.1103 15.4666 12.1817C14.7399 12.2335 14.0189 12.3038 13.304 12.3921L14.1325 22.334C14.1784 22.8851 14.6763 23.3107 15.2751 23.3107H21.7249C22.3237 23.3107 22.8215 22.8851 22.8675 22.334L23.696 12.3921C22.9811 12.3038 22.2601 12.2335 21.5334 12.1817C20.5325 12.1103 19.5209 12.0739 18.5 12.0739ZM25.0971 12.5892C25.1223 12.5932 25.1474 12.5972 25.1726 12.6012C25.5571 12.6627 25.9229 12.4247 25.9895 12.0698C26.0561 11.7148 25.7984 11.3771 25.4138 11.3156C25.1292 11.2701 24.8435 11.2274 24.5569 11.1874C23.596 11.0535 22.624 10.9509 21.6423 10.8809C20.6052 10.8069 19.5573 10.7692 18.5 10.7692C17.4427 10.7692 16.3948 10.8069 15.3577 10.8809C14.376 10.9509 13.404 11.0535 12.4431 11.1874C12.1565 11.2274 11.8708 11.2701 11.5862 11.3156C11.2016 11.3771 10.9439 11.7148 11.0105 12.0698C11.0771 12.4247 11.4429 12.6627 11.8274 12.6012C11.8526 12.5972 11.8777 12.5932 11.9029 12.5892L12.7233 22.434C12.8259 23.6649 13.9378 24.6154 15.2751 24.6154H21.7249C23.0622 24.6154 24.1741 23.6649 24.2767 22.434L25.0971 12.5892ZM16.2164 13.62C16.6064 13.6062 16.9347 13.8868 16.9497 14.2468L17.2347 21.0876C17.2497 21.4476 16.9457 21.7507 16.5557 21.7646C16.1657 21.7784 15.8374 21.4978 15.8224 21.1378L15.5374 14.297C15.5224 13.937 15.8264 13.6339 16.2164 13.62ZM20.7836 13.62C21.1736 13.6339 21.4776 13.937 21.4626 14.297L21.1776 21.1378C21.1626 21.4978 20.8343 21.7784 20.4443 21.7646C20.0543 21.7507 19.7503 21.4476 19.7653 21.0876L20.0503 14.2468C20.0653 13.8868 20.3936 13.6062 20.7836 13.62Z" fill="white"/>
<path d="M15.3726 8.02796C15.5985 7.55926 16.1889 7.35011 16.6914 7.56081C17.1938 7.77151 17.418 8.32227 17.1922 8.79096C16.9663 9.25966 16.3759 9.46881 15.8734 9.25811C15.371 9.04741 15.1468 8.49665 15.3726 8.02796Z" fill="white"/>
<path fill-rule="evenodd" clip-rule="evenodd" d="M16.673 8.57324C16.7699 8.37203 16.6737 8.13559 16.458 8.04514C16.2423 7.95469 15.9888 8.04447 15.8918 8.24568C15.7949 8.44689 15.8911 8.68333 16.1068 8.77378C16.3225 8.86423 16.576 8.77445 16.673 8.57324ZM16.6914 7.56081C16.1889 7.35011 15.5985 7.55926 15.3726 8.02796C15.1468 8.49665 15.371 9.04741 15.8734 9.25811C16.3759 9.46881 16.9663 9.25966 17.1922 8.79096C17.418 8.32227 17.1938 7.77151 16.6914 7.56081Z" fill="white"/>
<path d="M17.1184 5.91928C17.2036 5.41157 17.7138 5.06438 18.2581 5.1438C18.8023 5.22322 19.1745 5.69917 19.0894 6.20688C19.0043 6.71458 18.494 7.06177 17.9498 6.98236C17.4055 6.90294 17.0333 6.42698 17.1184 5.91928Z" fill="white"/>
<path fill-rule="evenodd" clip-rule="evenodd" d="M18.527 6.12481C18.5635 5.90686 18.4037 5.70253 18.1701 5.66844C17.9364 5.63434 17.7174 5.78339 17.6808 6.00135C17.6443 6.2193 17.8041 6.42363 18.0377 6.45772C18.2714 6.49181 18.4904 6.34276 18.527 6.12481ZM18.2581 5.1438C17.7138 5.06438 17.2036 5.41157 17.1184 5.91928C17.0333 6.42698 17.4055 6.90294 17.9498 6.98236C18.494 7.06177 19.0043 6.71458 19.0894 6.20688C19.1745 5.69917 18.8023 5.22322 18.2581 5.1438Z" fill="white"/>
<path d="M19.4959 7.41587C19.8058 6.94695 20.4645 6.80116 20.9672 7.09023L21.0772 7.1535C21.5799 7.44257 21.7362 8.05705 21.4263 8.52597L21.3585 8.62859C21.0486 9.09751 20.3899 9.24331 19.8872 8.95423L19.7772 8.89097C19.2745 8.60189 19.1182 7.98742 19.4281 7.5185L19.4959 7.41587Z" fill="white"/>
<path fill-rule="evenodd" clip-rule="evenodd" d="M20.1838 7.88226C20.1755 7.902 20.1695 7.92218 20.1655 7.94253C20.1655 7.94253 20.1655 7.94253 20.1655 7.94253C20.1475 8.03399 20.1716 8.12894 20.2317 8.20312C20.2317 8.20312 20.2317 8.20312 20.2317 8.20312C20.2451 8.21963 20.2603 8.23511 20.2771 8.2493C20.2983 8.25698 20.3199 8.26266 20.3418 8.26639C20.3418 8.26639 20.3418 8.26639 20.3418 8.26639C20.4398 8.28315 20.5416 8.26062 20.6211 8.20456C20.6211 8.20456 20.6211 8.20456 20.6211 8.20456C20.6388 8.19208 20.6554 8.17795 20.6706 8.16221C20.6789 8.14247 20.6849 8.12229 20.6889 8.10193C20.6889 8.10193 20.6889 8.10193 20.6889 8.10193C20.7069 8.01048 20.6827 7.91552 20.6227 7.84134C20.6227 7.84134 20.6227 7.84134 20.6227 7.84134C20.6093 7.82483 20.5941 7.80935 20.5773 7.79517C20.5561 7.78748 20.5345 7.78181 20.5126 7.77808C20.5126 7.77808 20.5126 7.77808 20.5126 7.77808C20.4146 7.76132 20.3128 7.78385 20.2333 7.83991C20.2333 7.83991 20.2333 7.83991 20.2333 7.83991C20.2156 7.85238 20.199 7.86652 20.1838 7.88226ZM20.9672 7.09023C20.4645 6.80116 19.8058 6.94695 19.4959 7.41587L19.4281 7.5185C19.1182 7.98742 19.2745 8.60189 19.7772 8.89097L19.8872 8.95423C20.3899 9.24331 21.0486 9.09751 21.3585 8.62859L21.4263 8.52597C21.7362 8.05705 21.5799 7.44257 21.0772 7.1535L20.9672 7.09023Z" fill="white"/>
<defs>
<filter id="filter0_d_204_698" x="0" y="0" width="36" height="46.5981" filterUnits="userSpaceOnUse" color-interpolation-filters="sRGB">
<feFlood flood-opacity="0" result="BackgroundImageFix"/>
<feColorMatrix in="SourceAlpha" type="matrix" values="0 0 0 0 0 0 0 0 0 0 0 0 0 0 0 0 0 0 127 0" result="hardAlpha"/>
<feOffset dy="2"/>
<feGaussianBlur stdDeviation="1"/>
<feComposite in2="hardAlpha" operator="out"/>
<feColorMatrix type="matrix" values="0 0 0 0 0 0 0 0 0 0 0 0 0 0 0 0 0 0 0.15 0"/>
<feBlend mode="normal" in2="BackgroundImageFix" result="effect1_dropShadow_204_698"/>
<feBlend mode="normal" in="SourceGraphic" in2="effect1_dropShadow_204_698" result="shape"/>
</filter>
</defs>
</svg>
