<svg width="38" height="50" viewBox="0 0 38 50" fill="none" xmlns="http://www.w3.org/2000/svg">
<ellipse opacity="0.5" cx="19.0041" cy="42.4572" rx="14.5155" ry="7.22649" fill="#B91C1C"/>
<g filter="url(#filter0_d_204_699)">
<path d="M18.9999 1C10.1776 1 3 8.3348 3 17.3503C3 24.2402 7.19217 30.148 13.1066 32.551L18.0293 42.8687C18.2472 43.3255 18.6433 43.5981 19.0886 43.5981C19.5357 43.5981 19.934 43.3228 20.1536 42.8622L25.1211 32.4557C30.915 29.9948 35 24.1512 35 17.3501C34.9998 8.3348 27.8222 1 18.9999 1ZM18.9999 25.6486C14.515 25.6486 10.8793 21.9333 10.8793 17.3503C10.8793 12.7673 14.515 9.05181 18.9999 9.05181C23.4848 9.05181 27.1206 12.7671 27.1206 17.3503C27.1206 21.9334 23.4848 25.6486 18.9999 25.6486Z" fill="#B91C1C"/>
<path d="M17.8036 42.9764L17.8036 42.9764C18.0561 43.5053 18.5316 43.8481 19.0886 43.8481C19.6479 43.8481 20.1254 43.5021 20.3792 42.9699C20.3792 42.9699 20.3792 42.9698 20.3793 42.9698L25.3061 32.6484C31.1448 30.1274 35.25 24.2187 35.25 17.3501C35.2498 8.20186 27.9654 0.75 18.9999 0.75C10.0345 0.75 2.75 8.20186 2.75 17.3503C2.75 24.3081 6.96247 30.2818 12.9225 32.7457L17.8036 42.9764ZM18.9999 25.3986C14.6581 25.3986 11.1293 21.8003 11.1293 17.3503C11.1293 12.9003 14.6581 9.30181 18.9999 9.30181C23.3417 9.30181 26.8706 12.9001 26.8706 17.3503C26.8706 21.8005 23.3417 25.3986 18.9999 25.3986Z" stroke="white" stroke-width="0.5"/>
</g>
<path d="M30 16.5C30 22.299 25.299 27 19.5 27C13.701 27 9 22.299 9 16.5C9 10.701 13.701 6 19.5 6C25.299 6 30 10.701 30 16.5Z" fill="#B52D2D"/>
<path fill-rule="evenodd" clip-rule="evenodd" d="M19.5 13.0739C18.4791 13.0739 17.4675 13.1103 16.4666 13.1817C15.7399 13.2335 15.0189 13.3038 14.304 13.3921L15.1325 23.334C15.1784 23.8851 15.6763 24.3107 16.2751 24.3107H22.7249C23.3237 24.3107 23.8215 23.8851 23.8675 23.334L24.696 13.3921C23.9811 13.3038 23.2601 13.2335 22.5334 13.1817C21.5325 13.1103 20.5209 13.0739 19.5 13.0739ZM26.0971 13.5892C26.1223 13.5932 26.1474 13.5972 26.1726 13.6012C26.5571 13.6627 26.9229 13.4247 26.9895 13.0698C27.0561 12.7148 26.7984 12.3771 26.4138 12.3156C26.1292 12.2701 25.8435 12.2274 25.5569 12.1874C24.596 12.0535 23.624 11.9509 22.6423 11.8809C21.6052 11.8069 20.5573 11.7692 19.5 11.7692C18.4427 11.7692 17.3948 11.8069 16.3577 11.8809C15.376 11.9509 14.404 12.0535 13.4431 12.1874C13.1565 12.2274 12.8708 12.2701 12.5862 12.3156C12.2016 12.3771 11.9439 12.7148 12.0105 13.0698C12.0771 13.4247 12.4429 13.6627 12.8274 13.6012C12.8526 13.5972 12.8777 13.5932 12.9029 13.5892L13.7233 23.434C13.8259 24.6649 14.9378 25.6154 16.2751 25.6154H22.7249C24.0622 25.6154 25.1741 24.6649 25.2767 23.434L26.0971 13.5892ZM17.2164 14.62C17.6064 14.6062 17.9347 14.8868 17.9497 15.2468L18.2347 22.0876C18.2497 22.4476 17.9457 22.7507 17.5557 22.7646C17.1657 22.7784 16.8374 22.4978 16.8224 22.1378L16.5374 15.297C16.5224 14.937 16.8264 14.6339 17.2164 14.62ZM21.7836 14.62C22.1736 14.6339 22.4776 14.937 22.4626 15.297L22.1776 22.1378C22.1626 22.4978 21.8343 22.7784 21.4443 22.7646C21.0543 22.7507 20.7503 22.4476 20.7653 22.0876L21.0503 15.2468C21.0653 14.8868 21.3936 14.6062 21.7836 14.62Z" fill="white"/>
<path d="M16.3726 9.02796C16.5985 8.55926 17.1889 8.35011 17.6914 8.56081C18.1938 8.77151 18.418 9.32227 18.1922 9.79096C17.9663 10.2597 17.3759 10.4688 16.8734 10.2581C16.371 10.0474 16.1468 9.49665 16.3726 9.02796Z" fill="white"/>
<path fill-rule="evenodd" clip-rule="evenodd" d="M17.673 9.57324C17.7699 9.37203 17.6737 9.13559 17.458 9.04514C17.2423 8.95469 16.9888 9.04447 16.8918 9.24568C16.7949 9.44689 16.8911 9.68333 17.1068 9.77378C17.3225 9.86423 17.576 9.77445 17.673 9.57324ZM17.6914 8.56081C17.1889 8.35011 16.5985 8.55926 16.3726 9.02796C16.1468 9.49665 16.371 10.0474 16.8734 10.2581C17.3759 10.4688 17.9663 10.2597 18.1922 9.79096C18.418 9.32227 18.1938 8.77151 17.6914 8.56081Z" fill="white"/>
<path d="M18.1184 6.91928C18.2036 6.41157 18.7138 6.06438 19.2581 6.1438C19.8023 6.22322 20.1745 6.69917 20.0894 7.20688C20.0043 7.71458 19.494 8.06177 18.9498 7.98236C18.4055 7.90294 18.0333 7.42698 18.1184 6.91928Z" fill="white"/>
<path fill-rule="evenodd" clip-rule="evenodd" d="M19.527 7.12481C19.5635 6.90686 19.4037 6.70253 19.1701 6.66844C18.9364 6.63434 18.7174 6.78339 18.6808 7.00135C18.6443 7.2193 18.8041 7.42363 19.0377 7.45772C19.2714 7.49181 19.4904 7.34276 19.527 7.12481ZM19.2581 6.1438C18.7138 6.06438 18.2036 6.41157 18.1184 6.91928C18.0333 7.42698 18.4055 7.90294 18.9498 7.98236C19.494 8.06177 20.0043 7.71458 20.0894 7.20688C20.1745 6.69917 19.8023 6.22322 19.2581 6.1438Z" fill="white"/>
<path d="M20.4959 8.41587C20.8058 7.94695 21.4645 7.80116 21.9672 8.09023L22.0772 8.1535C22.5799 8.44257 22.7362 9.05705 22.4263 9.52597L22.3585 9.62859C22.0486 10.0975 21.3899 10.2433 20.8872 9.95423L20.7772 9.89097C20.2745 9.60189 20.1182 8.98742 20.4281 8.5185L20.4959 8.41587Z" fill="white"/>
<path fill-rule="evenodd" clip-rule="evenodd" d="M21.1838 8.88226C21.1755 8.902 21.1695 8.92218 21.1655 8.94253C21.1655 8.94253 21.1655 8.94253 21.1655 8.94253C21.1475 9.03399 21.1716 9.12894 21.2317 9.20312C21.2317 9.20312 21.2317 9.20312 21.2317 9.20312C21.2451 9.21963 21.2603 9.23511 21.2771 9.2493C21.2983 9.25698 21.3199 9.26266 21.3418 9.26639C21.3418 9.26639 21.3418 9.26639 21.3418 9.26639C21.4398 9.28315 21.5416 9.26062 21.6211 9.20456C21.6211 9.20456 21.6211 9.20456 21.6211 9.20456C21.6388 9.19208 21.6554 9.17795 21.6706 9.16221C21.6789 9.14247 21.6849 9.12229 21.6889 9.10193C21.6889 9.10193 21.6889 9.10193 21.6889 9.10193C21.7069 9.01048 21.6827 8.91552 21.6227 8.84134C21.6227 8.84134 21.6227 8.84134 21.6227 8.84134C21.6093 8.82483 21.5941 8.80935 21.5773 8.79517C21.5561 8.78748 21.5345 8.78181 21.5126 8.77808C21.5126 8.77808 21.5126 8.77808 21.5126 8.77808C21.4146 8.76132 21.3128 8.78385 21.2333 8.83991C21.2333 8.83991 21.2333 8.83991 21.2333 8.83991C21.2156 8.85238 21.199 8.86652 21.1838 8.88226ZM21.9672 8.09023C21.4645 7.80116 20.8058 7.94695 20.4959 8.41587L20.4281 8.5185C20.1182 8.98742 20.2745 9.60189 20.7772 9.89097L20.8872 9.95423C21.3899 10.2433 22.0486 10.0975 22.3585 9.62859L22.4263 9.52597C22.7362 9.05705 22.5799 8.44257 22.0772 8.1535L21.9672 8.09023Z" fill="white"/>
<defs>
<filter id="filter0_d_204_699" x="0.5" y="0.5" width="37" height="47.5981" filterUnits="userSpaceOnUse" color-interpolation-filters="sRGB">
<feFlood flood-opacity="0" result="BackgroundImageFix"/>
<feColorMatrix in="SourceAlpha" type="matrix" values="0 0 0 0 0 0 0 0 0 0 0 0 0 0 0 0 0 0 127 0" result="hardAlpha"/>
<feOffset dy="2"/>
<feGaussianBlur stdDeviation="1"/>
<feComposite in2="hardAlpha" operator="out"/>
<feColorMatrix type="matrix" values="0 0 0 0 0 0 0 0 0 0 0 0 0 0 0 0 0 0 0.15 0"/>
<feBlend mode="normal" in2="BackgroundImageFix" result="effect1_dropShadow_204_699"/>
<feBlend mode="normal" in="SourceGraphic" in2="effect1_dropShadow_204_699" result="shape"/>
</filter>
</defs>
</svg>
