<svg width="75" height="100" viewBox="0 0 75 104" fill="none" xmlns="http://www.w3.org/2000/svg">
<ellipse cx="37.5" cy="40" rx="35.5" ry="14" stroke="#96BA00" stroke-width="4" stroke-linecap="round" stroke-linejoin="round"/>
<path d="M8.98289 53.5324C8.83869 52.4373 7.83404 51.6664 6.73892 51.8106C5.6438 51.9548 4.87292 52.9594 5.01711 54.0546L8.98289 53.5324ZM14.625 92.2039L13.0207 93.3982L14.625 92.2039ZM61.7614 92.2039L60.1571 91.0096L61.7614 92.2039ZM69.9966 51.1166C70.061 50.0139 69.2193 49.0678 68.1166 49.0034C67.0139 48.939 66.0678 49.7807 66.0034 50.8834L69.9966 51.1166ZM5.01711 54.0546C5.7708 59.7787 7.05794 68.577 8.472 76.376C9.17845 80.2722 9.92169 83.9478 10.6514 86.8758C11.0158 88.3379 11.3841 89.6435 11.7515 90.7102C12.0985 91.7175 12.5094 92.7113 13.0207 93.3982L16.2293 91.0096C16.1167 90.8585 15.8684 90.3799 15.5335 89.4075C15.219 88.4947 14.8828 87.3133 14.5327 85.9085C13.8334 83.1026 13.108 79.5238 12.4078 75.6623C11.0087 67.9459 9.73109 59.215 8.98289 53.5324L5.01711 54.0546ZM13.0207 93.3982C14.7936 95.7798 17.8147 98.3117 21.4709 100.292C25.1453 102.281 29.6011 103.79 34.3001 103.979L34.4612 99.9827C30.4955 99.8229 26.6331 98.5382 23.3757 96.7742C20.1 95.0004 17.5757 92.8183 16.2293 91.0096L13.0207 93.3982ZM34.3001 103.979C38.9517 104.167 45.0113 103.053 50.4068 101.211C53.1205 100.285 55.7254 99.1545 57.9483 97.869C60.145 96.5986 62.0957 95.1041 63.3656 93.3982L60.1571 91.0096C59.3475 92.0972 57.9189 93.2653 55.9457 94.4064C53.9986 95.5324 51.643 96.5626 49.1145 97.4258C44.0257 99.1631 38.4744 100.144 34.4612 99.9827L34.3001 103.979ZM63.3656 93.3982C63.974 92.5809 64.4528 91.461 64.8519 90.2749C65.264 89.0498 65.6443 87.5887 65.9963 85.9764C66.7009 82.7497 67.3204 78.7868 67.8523 74.6319C68.9169 66.3153 69.6482 57.0837 69.9966 51.1166L66.0034 50.8834C65.6586 56.7886 64.9343 65.9242 63.8847 74.124C63.3594 78.2274 62.7572 82.0601 62.0884 85.1231C61.7538 86.6557 61.4094 87.9629 61.0607 88.9994C60.6989 90.0747 60.3805 90.7095 60.1571 91.0096L63.3656 93.3982Z" fill="#96BA00"/>
<path d="M73 41C73 52.0457 57.1061 61 37.5 61C17.8939 61 2 52.0457 2 41" stroke="#96BA00" stroke-width="4" stroke-linecap="round" stroke-linejoin="round"/>
<path d="M0.0406252 36.8662C-0.180875 37.9483 0.516806 39.0051 1.59894 39.2266C2.68107 39.4481 3.73787 38.7505 3.95937 37.6683L0.0406252 36.8662ZM71.0867 37.8497C71.4084 38.9064 72.5258 39.5022 73.5825 39.1806C74.6392 38.8589 75.235 37.7415 74.9133 36.6848L71.0867 37.8497ZM30.8681 83.0082L32.6964 83.819L33.5749 81.8381L31.5301 81.1209L30.8681 83.0082ZM3.95937 37.6683C4.47422 35.1531 5.36405 31.1404 6.35524 27.2994C7.36573 23.3835 8.42493 19.8778 9.25116 18.2218L5.67192 16.436C4.62562 18.5331 3.4742 22.4554 2.48212 26.2999C1.47075 30.2191 0.566074 34.2991 0.0406252 36.8662L3.95937 37.6683ZM9.25116 18.2218C10.2474 16.225 13.213 12.3739 18.0291 9.17181C22.7967 6.00189 29.2909 3.52569 37.3637 4.07729L37.6363 0.0865978C28.5443 -0.534645 21.1896 2.26695 15.8144 5.84088C10.4876 9.3826 7.01632 13.7414 5.67192 16.436L9.25116 18.2218ZM37.3637 4.07729C45.5112 4.634 52.1678 7.48701 57.6498 12.8892C63.1776 18.3366 67.6298 26.4945 71.0867 37.8497L74.9133 36.6848C71.3482 24.974 66.6329 16.1257 60.4574 10.0401C54.2361 3.90939 46.6537 0.702736 37.6363 0.0865978L37.3637 4.07729ZM29.9763 90.0498C30.5577 88.6902 31.2374 87.1332 31.7729 85.9136C32.0404 85.3043 32.2714 84.7803 32.4355 84.4088C32.5176 84.223 32.5829 84.0754 32.6276 83.9743C32.65 83.9237 32.6672 83.8848 32.6789 83.8586C32.6847 83.8455 32.6891 83.8355 32.692 83.8289C32.6935 83.8256 32.6946 83.8231 32.6953 83.8214C32.6957 83.8206 32.696 83.82 32.6961 83.8196C32.6962 83.8194 32.6963 83.8192 32.6963 83.8191C32.6964 83.8191 32.6964 83.8191 32.6964 83.819C32.6964 83.819 32.6964 83.819 30.8681 83.0082C29.0399 82.1974 29.0399 82.1974 29.0398 82.1974C29.0398 82.1975 29.0398 82.1975 29.0398 82.1976C29.0397 82.1977 29.0396 82.1979 29.0395 82.1981C29.0393 82.1985 29.0391 82.1992 29.0387 82.2001C29.0379 82.2018 29.0367 82.2044 29.0352 82.2079C29.0322 82.2147 29.0277 82.2248 29.0218 82.2382C29.01 82.2648 28.9925 82.3042 28.97 82.3552C28.9248 82.4572 28.8591 82.6058 28.7765 82.7927C28.6115 83.1664 28.3793 83.6931 28.1104 84.3055C27.573 85.5293 26.8874 87.0999 26.2985 88.477L29.9763 90.0498ZM30.8681 83.0082C31.5301 81.1209 31.5303 81.121 31.5304 81.121C31.5304 81.121 31.5305 81.1211 31.5305 81.1211C31.5305 81.1211 31.5304 81.121 31.5302 81.121C31.5298 81.1208 31.5289 81.1205 31.5276 81.12C31.5249 81.1191 31.5204 81.1175 31.5141 81.1153C31.5016 81.1108 31.482 81.1039 31.4559 81.0945C31.4036 81.0757 31.3252 81.0474 31.2246 81.0104C31.0233 80.9364 30.7343 80.8282 30.389 80.6933C29.6941 80.4218 28.7906 80.0499 27.9222 79.6376C27.0259 79.2122 26.2796 78.796 25.8307 78.452C25.5928 78.2696 25.5757 78.2099 25.6254 78.2905C25.6971 78.4065 25.9585 78.9538 25.6358 79.6007L22.0565 77.8149C21.5387 78.8527 21.8733 79.8276 22.2223 80.3926C22.5494 80.9221 23.0138 81.3328 23.3976 81.6269C24.1922 82.2358 25.2502 82.797 26.2069 83.2512C27.1915 83.7186 28.1898 84.1285 28.9335 84.4191C29.3074 84.5652 29.6218 84.6829 29.8442 84.7647C29.9555 84.8056 30.0439 84.8376 30.1055 84.8597C30.1364 84.8707 30.1605 84.8793 30.1774 84.8853C30.1859 84.8883 30.1926 84.8907 30.1974 84.8924C30.1998 84.8932 30.2017 84.8939 30.2032 84.8944C30.2039 84.8947 30.2045 84.8949 30.205 84.8951C30.2053 84.8952 30.2056 84.8953 30.2057 84.8953C30.2059 84.8954 30.2062 84.8955 30.8681 83.0082ZM25.6358 79.6007C25.4894 79.8941 25.3021 79.9793 25.3652 79.9433C25.4167 79.9139 25.5581 79.8493 25.8348 79.7711C26.3935 79.6131 27.1504 79.494 28.0644 79.3702C28.9138 79.2552 29.9244 79.1335 30.7674 78.9645C31.1963 78.8785 31.6518 78.7675 32.0733 78.6124C32.4636 78.4687 33.0065 78.2234 33.4542 77.7748L30.6227 74.9494C30.7778 74.7939 30.8697 74.793 30.6916 74.8586C30.5447 74.9126 30.3145 74.9757 29.9814 75.0425C29.3005 75.1789 28.4825 75.2771 27.5276 75.4064C26.6374 75.527 25.6144 75.6766 24.7468 75.9219C24.3103 76.0453 23.8269 76.2158 23.3832 76.4689C22.951 76.7154 22.398 77.1305 22.0565 77.8149L25.6358 79.6007ZM33.4542 77.7748C33.8841 77.3439 34.1391 76.8088 34.2925 76.4394C34.4636 76.0271 34.6075 75.5683 34.732 75.1253C34.9678 74.2859 35.2223 73.1599 35.439 72.3131C35.6824 71.3615 35.9097 70.6215 36.1418 70.1435C36.2578 69.9044 36.3173 69.8552 36.283 69.8886C36.225 69.9452 35.9696 70.1522 35.5494 70.1522V66.1522C34.6417 66.1522 33.9474 66.5791 33.4901 67.0251C33.0566 67.4479 32.7565 67.9576 32.5433 68.3966C32.1171 69.2747 31.808 70.3673 31.5638 71.3216C31.2928 72.3806 31.1085 73.2338 30.881 74.0437C30.7738 74.4253 30.68 74.7087 30.5982 74.9057C30.4986 75.1457 30.4854 75.087 30.6227 74.9494L33.4542 77.7748ZM35.5494 70.1522C35.1035 70.1522 34.8558 69.9272 34.8343 69.9062C34.8253 69.8975 34.9036 69.9779 35.0401 70.2423C35.3116 70.7685 35.584 71.5602 35.8766 72.5375C36.142 73.4242 36.4451 74.5427 36.7238 75.3807C36.868 75.8143 37.0359 76.2697 37.2334 76.6698C37.3919 76.991 37.7245 77.6142 38.3395 78.0251L40.5616 74.6991C40.884 74.9145 40.9363 75.1345 40.8204 74.8998C40.7436 74.744 40.6433 74.4909 40.5193 74.1182C40.2617 73.3435 40.0283 72.4584 39.7086 71.3904C39.416 70.4129 39.0544 69.2988 38.5945 68.4077C38.3653 67.9636 38.0535 67.4576 37.6239 67.0395C37.1818 66.6093 36.4831 66.1522 35.5494 66.1522V70.1522ZM38.3395 78.0251C38.8064 78.337 39.3193 78.4745 39.6838 78.5476C40.082 78.6274 40.5082 78.6683 40.9214 78.6894C41.7477 78.7315 42.7095 78.7022 43.652 78.6525C45.6598 78.5466 47.5081 78.3621 48.8132 78.3621V74.3621C47.3875 74.3621 45.1396 74.5685 43.4414 74.6581C42.5308 74.7061 41.7372 74.7257 41.125 74.6945C40.8189 74.6789 40.6051 74.6527 40.4699 74.6256C40.3011 74.5917 40.3873 74.5826 40.5616 74.6991L38.3395 78.0251ZM48.8132 78.3621C48.8983 78.3621 48.6533 78.3831 48.319 78.2228C48.1224 78.1284 47.8308 77.9398 47.6002 77.5902C47.3572 77.2217 47.2801 76.8228 47.2963 76.4871C47.311 76.1819 47.3994 75.9603 47.4501 75.8522C47.5037 75.7379 47.5547 75.6673 47.571 75.6455C47.6003 75.6062 47.5919 75.6255 47.4991 75.7112C47.0949 76.0844 46.2509 76.6786 45.1177 77.4357C44.0574 78.1441 42.7977 78.9609 41.7858 79.6789C41.2765 80.0404 40.7842 80.4085 40.3791 80.7565C40.0482 81.0407 39.5181 81.5207 39.2214 82.1153L42.8006 83.9011C42.699 84.1048 42.6443 84.0838 42.9854 83.7908C43.2523 83.5615 43.6286 83.2761 44.1007 82.9411C45.0515 82.2663 46.2057 81.5194 47.3398 80.7617C48.4009 80.0528 49.5318 79.2787 50.2126 78.6501C50.391 78.4853 50.5983 78.2771 50.7771 78.0373C50.9093 77.8602 51.2583 77.3697 51.2916 76.68C51.3113 76.2732 51.2185 75.8111 50.9393 75.3878C50.6725 74.9834 50.3243 74.7483 50.0493 74.6163C49.5583 74.3808 49.0695 74.3621 48.8132 74.3621V78.3621ZM39.2214 82.1153C38.7803 82.9994 38.9684 83.91 39.0793 84.3414C39.2168 84.8766 39.4487 85.4287 39.6841 85.927C40.1504 86.9143 40.8299 88.0927 41.3528 89.0496C41.938 90.1205 42.307 90.8805 42.4228 91.3221C42.4955 91.5995 42.3477 91.3152 42.5507 90.8613C42.6832 90.5649 42.9205 90.304 43.2237 90.1449C43.4908 90.0049 43.7008 90 43.7418 90V94C44.124 94 44.6053 93.9371 45.0813 93.6875C45.5935 93.4189 45.9775 92.9968 46.2022 92.4942C46.5896 91.628 46.4083 90.7512 46.292 90.3078C46.0299 89.3078 45.3993 88.113 44.8629 87.1315C44.2642 86.0359 43.7002 85.064 43.301 84.2187C43.1035 83.8008 42.9971 83.516 42.9534 83.3457C42.8829 83.0716 43.0467 83.4079 42.8006 83.9011L39.2214 82.1153ZM43.7418 90C43.7557 90 43.4783 89.9718 42.7898 89.4515C42.1534 88.9705 41.4995 88.337 40.7192 87.6072C40.019 86.9523 39.1425 86.1457 38.2552 85.6423C37.3755 85.1433 35.7667 84.5711 34.2984 85.7482L36.8005 88.8691C36.3075 89.2643 35.869 88.8875 36.2816 89.1215C36.6865 89.3512 37.2241 89.8151 37.9868 90.5285C38.6695 91.1671 39.5273 91.9997 40.3781 92.6427C41.1769 93.2463 42.3624 94 43.7418 94V90ZM34.2984 85.7482C33.5333 86.3616 31.5942 87.4384 29.9925 88.018C29.6087 88.1569 29.2877 88.2509 29.0413 88.3029C28.763 88.3615 28.709 88.3385 28.8005 88.3511C28.8935 88.3639 29.5641 88.4971 29.8825 89.2516C30.1338 89.8472 29.8922 90.2464 29.9763 90.0498L26.2985 88.477C26.09 88.9644 25.7996 89.8646 26.1972 90.8068C26.6619 91.908 27.6738 92.2336 28.2545 92.3136C28.8336 92.3934 29.4135 92.3123 29.8666 92.2168C30.3517 92.1145 30.8597 91.958 31.3537 91.7793C33.2629 91.0884 35.6151 89.8194 36.8005 88.8691L34.2984 85.7482Z" fill="#96BA00"/>
</svg>
