<svg width="80" height="89" viewBox="0 0 80 89" fill="none" xmlns="http://www.w3.org/2000/svg">
<path d="M60.1333 44.3768L55.4222 39.7009L33.7333 61.2277L24.3111 51.8759L19.6 56.5518L33.7333 70.5794L60.1333 44.3768ZM71.1111 8.82243H66.6667V0H57.7778V8.82243H22.2222V0H13.3333V8.82243H8.88889C3.95556 8.82243 0.0444444 12.7925 0.0444444 17.6449L0 79.4019C0 84.2542 3.95556 88.2243 8.88889 88.2243H71.1111C76 88.2243 80 84.2542 80 79.4019V17.6449C80 12.7925 76 8.82243 71.1111 8.82243ZM71.1111 79.4019H8.88889V30.8785H71.1111V79.4019Z" fill="#96BA00"/>
</svg>
