<svg width="48" height="48" viewBox="0 0 48 48" fill="none" xmlns="http://www.w3.org/2000/svg">
<path d="M23.6572 3.2572C15.8856 3.2572 9.6001 9.53509 9.6001 17.2972C9.6001 27.8272 23.6572 43.3715 23.6572 43.3715C23.6572 43.3715 37.7144 27.8272 37.7144 17.2972C37.7144 9.53509 31.4288 3.2572 23.6572 3.2572ZM23.6572 22.3115C20.886 22.3115 18.6368 20.0651 18.6368 17.2972C18.6368 14.5293 20.886 12.2829 23.6572 12.2829C26.4285 12.2829 28.6777 14.5293 28.6777 17.2972C28.6777 20.0651 26.4285 22.3115 23.6572 22.3115Z" fill="#B52D2D"/>
<path d="M23.6572 3.2572C15.8856 3.2572 9.6001 9.53509 9.6001 17.2972C9.6001 27.8272 23.6572 43.3715 23.6572 43.3715C23.6572 43.3715 37.7144 27.8272 37.7144 17.2972C37.7144 9.53509 31.4288 3.2572 23.6572 3.2572ZM23.6572 22.3115C20.886 22.3115 18.6368 20.0651 18.6368 17.2972C18.6368 14.5293 20.886 12.2829 23.6572 12.2829C26.4285 12.2829 28.6777 14.5293 28.6777 17.2972C28.6777 20.0651 26.4285 22.3115 23.6572 22.3115Z" stroke="black"/>
<path d="M23.37 44.0656L23.75 44.51L24.13 44.0656C24.5224 43.6068 25.0314 43.0012 25.6227 42.2737C27.0439 40.5255 28.9378 38.0775 30.8304 35.277C32.7242 32.4747 34.6086 29.3314 36.0175 26.1916C37.4303 23.0432 38.3428 19.9467 38.3428 17.225C38.3428 9.171 31.8187 2.6567 23.75 2.6567C15.6813 2.6567 9.15718 9.171 9.15718 17.225C9.15718 19.9467 10.0697 23.0432 11.4825 26.1916C12.8914 29.3314 14.7758 32.4747 16.6696 35.277C18.5622 38.0775 20.4561 40.5255 21.8773 42.2737C22.4686 43.0012 22.9776 43.6068 23.37 44.0656ZM23.75 44.7454C23.6418 44.6216 23.5116 44.4716 23.3616 44.2971C21.8223 42.505 18.2197 38.1439 15.0048 33.0084C11.7747 27.8485 9 22.0053 9 17.225C9 9.08467 15.5943 2.5 23.75 2.5C31.9057 2.5 38.5 9.08467 38.5 17.225C38.5 22.0053 35.7253 27.8485 32.4952 33.0084C29.2803 38.1439 25.6777 42.505 24.1384 44.2971C23.9884 44.4716 23.8582 44.6216 23.75 44.7454ZM23.75 23.3192C20.3811 23.3192 17.6464 20.5897 17.6464 17.225C17.6464 13.8603 20.3811 11.1308 23.75 11.1308C27.1189 11.1308 29.8536 13.8603 29.8536 17.225C29.8536 20.5897 27.1189 23.3192 23.75 23.3192ZM17.8036 17.225C17.8036 20.5034 20.4682 23.1625 23.75 23.1625C27.0318 23.1625 29.6964 20.5034 29.6964 17.225C29.6964 13.9466 27.0318 11.2875 23.75 11.2875C20.4682 11.2875 17.8036 13.9466 17.8036 17.225Z" fill="black" stroke="black"/>
<path fill-rule="evenodd" clip-rule="evenodd" d="M22.9496 42.5626C23.3979 43.0847 23.6572 43.3715 23.6572 43.3715C23.6572 43.3715 23.9166 43.0847 24.3648 42.5626C27.2167 39.2412 37.7144 26.3969 37.7144 17.2972C37.7144 9.53509 31.4288 3.2572 23.6572 3.2572C15.8856 3.2572 9.6001 9.53509 9.6001 17.2972C9.6001 26.3969 20.0978 39.2412 22.9496 42.5626ZM23.6572 41.7491C24.0167 41.3286 24.4834 40.773 25.0258 40.1055C26.3299 38.5006 28.067 36.2543 29.8019 33.686C31.5389 31.1147 33.2606 28.24 34.5447 25.3771C35.8351 22.5002 36.6477 19.7136 36.6477 17.2972C36.6477 10.1254 30.841 4.32387 23.6572 4.32387C16.4735 4.32387 10.6668 10.1254 10.6668 17.2972C10.6668 19.7136 11.4793 22.5002 12.7698 25.3771C14.0539 28.24 15.7756 31.1147 17.5126 33.686C19.2475 36.2543 20.9845 38.5006 22.2886 40.1055C22.8311 40.773 23.2978 41.3286 23.6572 41.7491ZM23.6572 23.3782C20.2981 23.3782 17.5702 20.6554 17.5702 17.2972C17.5702 13.939 20.2981 11.2163 23.6572 11.2163C27.0164 11.2163 29.7443 13.939 29.7443 17.2972C29.7443 20.6554 27.0164 23.3782 23.6572 23.3782ZM18.6368 17.2972C18.6368 20.0651 20.886 22.3115 23.6572 22.3115C26.4285 22.3115 28.6776 20.0651 28.6776 17.2972C28.6776 14.5293 26.4285 12.2829 23.6572 12.2829C20.886 12.2829 18.6368 14.5293 18.6368 17.2972Z" fill="#FEFEFE"/>
</svg>
