<svg width="29" height="29" viewBox="0 0 29 29" fill="none" xmlns="http://www.w3.org/2000/svg">
<path d="M25.8438 0.0625H3.15625C2.33574 0.0625 1.54883 0.388448 0.968638 0.968638C0.388448 1.54883 0.0625 2.33574 0.0625 3.15625L0.0625 25.8438C0.0625 26.6643 0.388448 27.4512 0.968638 28.0314C1.54883 28.6116 2.33574 28.9375 3.15625 28.9375H12.0024V19.1206H7.94189V14.5H12.0024V10.9783C12.0024 6.97252 14.3872 4.75984 18.0398 4.75984C19.789 4.75984 21.6182 5.0718 21.6182 5.0718V9.00344H19.6028C17.617 9.00344 16.9976 10.2358 16.9976 11.4997V14.5H21.4306L20.7217 19.1206H16.9976V28.9375H25.8438C26.6643 28.9375 27.4512 28.6116 28.0314 28.0314C28.6116 27.4512 28.9375 26.6643 28.9375 25.8438V3.15625C28.9375 2.33574 28.6116 1.54883 28.0314 0.968638C27.4512 0.388448 26.6643 0.0625 25.8438 0.0625Z" fill="white"/>
</svg>
