<svg width="109" height="101" viewBox="0 0 109 101" fill="none" xmlns="http://www.w3.org/2000/svg">
<mask id="path-1-outside-1_724_5149" maskUnits="userSpaceOnUse" x="-13.3986" y="-20.3986" width="137.831" height="139.089" fill="black">
<rect fill="white" x="-13.3986" y="-20.3986" width="137.831" height="139.089"/>
<path d="M95.6038 28.1884C96.142 23.6999 92.9891 19.4845 88.5332 18.7345C84.0773 17.9844 79.9772 20.9792 79.3385 25.4507L78.2469 33.7886L55.6881 3.27233C54.58 1.77393 52.9197 0.788374 51.1066 0.55257C49.2935 0.316767 47.4911 0.852337 46.1328 2.03044C45.3906 2.67746 44.82 3.5015 44.4696 4.43241L44.0166 3.81961C41.8116 0.837424 37.6924 0.143512 34.8159 2.26994C31.9393 4.39637 31.3946 8.53806 33.5994 11.5206L34.0325 12.1064C32.8882 12.2038 31.8007 12.6086 30.8821 13.2794C28.0106 15.4021 27.4619 19.534 29.6556 22.5165L36.9748 32.4174L20.7375 21.3867C19.2178 20.3575 17.3649 19.9983 15.6219 20.3948C13.8789 20.7913 12.4021 21.9078 11.5448 23.4776C11.0874 24.3316 10.842 25.2906 10.8287 26.275L10.2396 25.8774C8.78882 24.895 7.03219 24.519 5.35257 24.8313C2.79005 25.3108 0.819761 27.3152 0.361672 29.9085C-0.096417 32.5017 1.04782 35.173 3.26053 36.6744L3.8255 37.0502C2.81952 37.5337 1.96751 38.2821 1.35557 39.2197C-0.570931 42.2036 0.31403 46.2853 3.33293 48.3398L8.15595 51.6034C7.00616 52.1586 6.05994 53.056 5.4403 54.1796C3.86342 57.249 4.92981 61.11 7.88944 63.0467L34.3545 81.022C36.6634 82.5924 39.1799 83.8131 41.8204 84.6437L57.1835 89.4624C56.5983 90.9147 57.1318 92.6184 58.4545 93.5211L67.954 99.9754C68.6857 100.475 69.5738 100.666 70.4226 100.507C71.2714 100.349 72.0113 99.8531 72.4789 99.1295L75.3077 94.7474C76.4534 95.4468 77.8793 95.3969 78.9242 94.6209L106.266 74.4091C108.418 72.8181 108.825 69.7198 107.176 67.4884L102.178 60.728C100.894 59.0035 98.6895 58.2649 96.7052 58.8946L92.0513 52.599L95.6038 28.1884ZM36.1998 9.59831C35.0946 8.10332 35.3676 6.02739 36.8095 4.96148C38.2515 3.89556 40.3162 4.24338 41.4213 5.73837L55.4583 24.7268C53.2484 25.2773 51.4097 26.7654 50.406 28.8157L36.1998 9.59831ZM32.2562 20.5941C31.452 19.5012 31.3611 18.0491 32.0261 16.9137C32.6912 15.7782 33.9811 15.1827 35.2956 15.4044C36.1568 15.5456 36.9382 16.0279 37.4648 16.7437L49.6202 33.1869C49.6363 33.5086 49.6724 33.8297 49.7283 34.1484L51.5423 42.3084L45.0468 37.8966L32.2562 20.5941ZM9.64905 60.3213C8.15018 59.3563 7.57586 57.4277 8.31833 55.8528C8.74339 55.0761 9.47446 54.5232 10.3374 54.3263C11.2001 54.1293 12.1175 54.3058 12.8711 54.8135L27.8598 64.995C28.0304 65.1063 28.2187 65.1858 28.4151 65.23C28.4693 65.2405 28.5239 65.2482 28.5787 65.2528C28.7187 65.2726 28.8601 65.2737 28.9992 65.2565C29.0555 65.2496 29.1111 65.2397 29.1661 65.2269C29.312 65.1928 29.4514 65.1368 29.5796 65.0609C29.6134 65.0359 29.6555 65.0276 29.6915 65.003C29.7044 64.9935 29.7175 64.9838 29.7318 64.9732C30.1556 64.6597 30.3942 64.1514 30.3708 63.6115C30.3474 63.0716 30.0652 62.5683 29.6144 62.2628L14.634 52.09L5.09513 45.6126C3.60216 44.5954 3.16361 42.5768 4.11506 41.0993C5.07132 39.6261 7.05302 39.2518 8.54983 40.2618L28.9867 54.1421C29.1565 54.2543 29.3444 54.3343 29.5408 54.378C29.5988 54.3913 29.6548 54.3938 29.7135 54.4024C29.8481 54.4203 29.9838 54.4213 30.1176 54.4056C30.1783 54.4 30.2383 54.3905 30.2973 54.377C30.4328 54.3434 30.5626 54.2914 30.6835 54.2228C30.7251 54.1921 30.7758 54.1817 30.8184 54.1524C30.8301 54.1437 30.8418 54.1351 30.8547 54.1255C31.0061 54.0141 31.1357 53.8753 31.2369 53.7158C31.4711 53.3548 31.5503 52.9094 31.4574 52.4777C31.3645 52.0461 31.1066 51.6637 30.741 51.4146L5.02288 33.947C3.52976 32.9299 3.09136 30.9113 4.04282 29.4338C4.49835 28.7222 5.22454 28.2356 6.05787 28.0838C6.88879 27.9284 7.75834 28.1124 8.47758 28.5963L34.197 46.0712C34.8533 46.5159 35.7128 46.4428 36.2531 45.8965C36.7934 45.3502 36.865 44.4813 36.4247 43.8184C36.3007 43.6316 36.141 43.471 35.9554 43.3467L31.5241 40.3412L15.7553 29.6182C14.2569 28.6545 13.682 26.7273 14.4229 25.1528C14.8477 24.3748 15.5795 23.8212 16.4432 23.6242C17.3069 23.4272 18.2254 23.6042 18.9792 24.1132L49.7784 45.0305C50.8861 45.787 52.3136 45.8066 53.3906 45.0803C54.4874 44.37 55.0088 43.0308 54.699 41.7201L52.9228 33.5404C52.5681 31.9566 53.0085 30.3253 54.0983 29.1858C55.1879 28.0465 56.7848 27.5476 58.361 27.8542C60.3354 28.2199 61.9241 29.7714 62.3555 31.7551L67.7718 56.6789C67.7939 56.7422 67.8208 56.8038 67.8519 56.8633C67.8921 57.0071 67.9517 57.1454 68.0289 57.274C68.1534 57.4597 68.3126 57.6195 68.4971 57.7443L74.8224 62.0404L65.2871 76.795C64.7862 76.4489 64.2833 76.1083 63.7818 75.7585C56.7343 70.8445 48.7534 65.2734 39.1747 69.0324C36.0459 70.2729 33.3227 72.3336 31.2769 75.0081L9.64905 60.3213ZM42.6981 81.4832C40.3719 80.751 38.1552 79.6753 36.1208 78.292L34.0646 76.8962C35.7422 74.7678 37.9442 73.1255 40.4624 72.125C48.4322 68.9991 55.0218 73.5956 61.9989 78.4635C62.5133 78.8225 63.0218 79.1651 63.5397 79.5259L58.9808 86.5864L42.6981 81.4832ZM69.7273 97.2545L60.2274 90.7943L61.0579 89.5077L78.4436 62.5831C78.5458 62.4246 78.6754 62.2863 78.8268 62.1749C79.373 61.7699 80.1235 61.763 80.7041 62.1575L87.4408 66.7409C87.8071 66.9899 88.0652 67.3725 88.1586 67.8045C88.2519 68.2364 88.1723 68.6822 87.9378 69.0435L69.7273 97.2545ZM99.5819 62.6496L104.581 69.4068C105.131 70.1506 104.995 71.1833 104.278 71.7136L77.3155 91.6451L85.0608 79.6509L97.3819 70.5426L98.3774 71.8892C98.9273 72.633 99.9544 72.806 100.672 72.2757C101.389 71.7454 101.525 70.7127 100.975 69.9689L99.9796 68.6223C98.8727 67.1354 96.8138 66.7938 95.3778 67.8588L90.2069 71.6813L90.7029 70.9149C91.483 69.6966 91.6696 68.1702 91.2112 66.755L97.2874 62.2633C98.0048 61.7329 99.032 61.9059 99.5819 62.6496ZM88.7095 52.6971L88.7154 52.7052C88.6862 52.936 88.7055 53.1723 88.772 53.3985C88.8254 53.5918 88.9131 53.7747 89.0305 53.9383L89.0375 53.9478L93.9355 60.5735L89.24 64.0446C89.2311 64.0325 89.2211 64.019 89.203 64.0136L82.4587 59.4337C80.7191 58.2652 78.4804 58.2918 76.8496 59.5002L70.8287 55.4122L65.5581 31.1639C64.9034 28.0776 62.549 25.5936 59.5228 24.7959L48.0484 9.27401C46.9253 7.83014 47.0414 5.79797 48.3166 4.57728C48.9949 3.98899 49.8947 3.72112 50.8003 3.83802C51.7058 3.95477 52.5354 4.4456 53.0904 5.19289L75.6491 35.709C76.4535 36.8032 77.8155 37.3207 79.0977 37.0194C80.3797 36.718 81.3279 35.6573 81.4983 34.334L82.5836 26.0008C83.0082 23.3591 85.4453 21.609 88.0873 22.0482C90.7292 22.4875 92.6204 24.9575 92.3582 27.6263L88.7095 52.6971Z"/>
</mask>
<path d="M95.6038 28.1884C96.142 23.6999 92.9891 19.4845 88.5332 18.7345C84.0773 17.9844 79.9772 20.9792 79.3385 25.4507L78.2469 33.7886L55.6881 3.27233C54.58 1.77393 52.9197 0.788374 51.1066 0.55257C49.2935 0.316767 47.4911 0.852337 46.1328 2.03044C45.3906 2.67746 44.82 3.5015 44.4696 4.43241L44.0166 3.81961C41.8116 0.837424 37.6924 0.143512 34.8159 2.26994C31.9393 4.39637 31.3946 8.53806 33.5994 11.5206L34.0325 12.1064C32.8882 12.2038 31.8007 12.6086 30.8821 13.2794C28.0106 15.4021 27.4619 19.534 29.6556 22.5165L36.9748 32.4174L20.7375 21.3867C19.2178 20.3575 17.3649 19.9983 15.6219 20.3948C13.8789 20.7913 12.4021 21.9078 11.5448 23.4776C11.0874 24.3316 10.842 25.2906 10.8287 26.275L10.2396 25.8774C8.78882 24.895 7.03219 24.519 5.35257 24.8313C2.79005 25.3108 0.819761 27.3152 0.361672 29.9085C-0.096417 32.5017 1.04782 35.173 3.26053 36.6744L3.8255 37.0502C2.81952 37.5337 1.96751 38.2821 1.35557 39.2197C-0.570931 42.2036 0.31403 46.2853 3.33293 48.3398L8.15595 51.6034C7.00616 52.1586 6.05994 53.056 5.4403 54.1796C3.86342 57.249 4.92981 61.11 7.88944 63.0467L34.3545 81.022C36.6634 82.5924 39.1799 83.8131 41.8204 84.6437L57.1835 89.4624C56.5983 90.9147 57.1318 92.6184 58.4545 93.5211L67.954 99.9754C68.6857 100.475 69.5738 100.666 70.4226 100.507C71.2714 100.349 72.0113 99.8531 72.4789 99.1295L75.3077 94.7474C76.4534 95.4468 77.8793 95.3969 78.9242 94.6209L106.266 74.4091C108.418 72.8181 108.825 69.7198 107.176 67.4884L102.178 60.728C100.894 59.0035 98.6895 58.2649 96.7052 58.8946L92.0513 52.599L95.6038 28.1884ZM36.1998 9.59831C35.0946 8.10332 35.3676 6.02739 36.8095 4.96148C38.2515 3.89556 40.3162 4.24338 41.4213 5.73837L55.4583 24.7268C53.2484 25.2773 51.4097 26.7654 50.406 28.8157L36.1998 9.59831ZM32.2562 20.5941C31.452 19.5012 31.3611 18.0491 32.0261 16.9137C32.6912 15.7782 33.9811 15.1827 35.2956 15.4044C36.1568 15.5456 36.9382 16.0279 37.4648 16.7437L49.6202 33.1869C49.6363 33.5086 49.6724 33.8297 49.7283 34.1484L51.5423 42.3084L45.0468 37.8966L32.2562 20.5941ZM9.64905 60.3213C8.15018 59.3563 7.57586 57.4277 8.31833 55.8528C8.74339 55.0761 9.47446 54.5232 10.3374 54.3263C11.2001 54.1293 12.1175 54.3058 12.8711 54.8135L27.8598 64.995C28.0304 65.1063 28.2187 65.1858 28.4151 65.23C28.4693 65.2405 28.5239 65.2482 28.5787 65.2528C28.7187 65.2726 28.8601 65.2737 28.9992 65.2565C29.0555 65.2496 29.1111 65.2397 29.1661 65.2269C29.312 65.1928 29.4514 65.1368 29.5796 65.0609C29.6134 65.0359 29.6555 65.0276 29.6915 65.003C29.7044 64.9935 29.7175 64.9838 29.7318 64.9732C30.1556 64.6597 30.3942 64.1514 30.3708 63.6115C30.3474 63.0716 30.0652 62.5683 29.6144 62.2628L14.634 52.09L5.09513 45.6126C3.60216 44.5954 3.16361 42.5768 4.11506 41.0993C5.07132 39.6261 7.05302 39.2518 8.54983 40.2618L28.9867 54.1421C29.1565 54.2543 29.3444 54.3343 29.5408 54.378C29.5988 54.3913 29.6548 54.3938 29.7135 54.4024C29.8481 54.4203 29.9838 54.4213 30.1176 54.4056C30.1783 54.4 30.2383 54.3905 30.2973 54.377C30.4328 54.3434 30.5626 54.2914 30.6835 54.2228C30.7251 54.1921 30.7758 54.1817 30.8184 54.1524C30.8301 54.1437 30.8418 54.1351 30.8547 54.1255C31.0061 54.0141 31.1357 53.8753 31.2369 53.7158C31.4711 53.3548 31.5503 52.9094 31.4574 52.4777C31.3645 52.0461 31.1066 51.6637 30.741 51.4146L5.02288 33.947C3.52976 32.9299 3.09136 30.9113 4.04282 29.4338C4.49835 28.7222 5.22454 28.2356 6.05787 28.0838C6.88879 27.9284 7.75834 28.1124 8.47758 28.5963L34.197 46.0712C34.8533 46.5159 35.7128 46.4428 36.2531 45.8965C36.7934 45.3502 36.865 44.4813 36.4247 43.8184C36.3007 43.6316 36.141 43.471 35.9554 43.3467L31.5241 40.3412L15.7553 29.6182C14.2569 28.6545 13.682 26.7273 14.4229 25.1528C14.8477 24.3748 15.5795 23.8212 16.4432 23.6242C17.3069 23.4272 18.2254 23.6042 18.9792 24.1132L49.7784 45.0305C50.8861 45.787 52.3136 45.8066 53.3906 45.0803C54.4874 44.37 55.0088 43.0308 54.699 41.7201L52.9228 33.5404C52.5681 31.9566 53.0085 30.3253 54.0983 29.1858C55.1879 28.0465 56.7848 27.5476 58.361 27.8542C60.3354 28.2199 61.9241 29.7714 62.3555 31.7551L67.7718 56.6789C67.7939 56.7422 67.8208 56.8038 67.8519 56.8633C67.8921 57.0071 67.9517 57.1454 68.0289 57.274C68.1534 57.4597 68.3126 57.6195 68.4971 57.7443L74.8224 62.0404L65.2871 76.795C64.7862 76.4489 64.2833 76.1083 63.7818 75.7585C56.7343 70.8445 48.7534 65.2734 39.1747 69.0324C36.0459 70.2729 33.3227 72.3336 31.2769 75.0081L9.64905 60.3213ZM42.6981 81.4832C40.3719 80.751 38.1552 79.6753 36.1208 78.292L34.0646 76.8962C35.7422 74.7678 37.9442 73.1255 40.4624 72.125C48.4322 68.9991 55.0218 73.5956 61.9989 78.4635C62.5133 78.8225 63.0218 79.1651 63.5397 79.5259L58.9808 86.5864L42.6981 81.4832ZM69.7273 97.2545L60.2274 90.7943L61.0579 89.5077L78.4436 62.5831C78.5458 62.4246 78.6754 62.2863 78.8268 62.1749C79.373 61.7699 80.1235 61.763 80.7041 62.1575L87.4408 66.7409C87.8071 66.9899 88.0652 67.3725 88.1586 67.8045C88.2519 68.2364 88.1723 68.6822 87.9378 69.0435L69.7273 97.2545ZM99.5819 62.6496L104.581 69.4068C105.131 70.1506 104.995 71.1833 104.278 71.7136L77.3155 91.6451L85.0608 79.6509L97.3819 70.5426L98.3774 71.8892C98.9273 72.633 99.9544 72.806 100.672 72.2757C101.389 71.7454 101.525 70.7127 100.975 69.9689L99.9796 68.6223C98.8727 67.1354 96.8138 66.7938 95.3778 67.8588L90.2069 71.6813L90.7029 70.9149C91.483 69.6966 91.6696 68.1702 91.2112 66.755L97.2874 62.2633C98.0048 61.7329 99.032 61.9059 99.5819 62.6496ZM88.7095 52.6971L88.7154 52.7052C88.6862 52.936 88.7055 53.1723 88.772 53.3985C88.8254 53.5918 88.9131 53.7747 89.0305 53.9383L89.0375 53.9478L93.9355 60.5735L89.24 64.0446C89.2311 64.0325 89.2211 64.019 89.203 64.0136L82.4587 59.4337C80.7191 58.2652 78.4804 58.2918 76.8496 59.5002L70.8287 55.4122L65.5581 31.1639C64.9034 28.0776 62.549 25.5936 59.5228 24.7959L48.0484 9.27401C46.9253 7.83014 47.0414 5.79797 48.3166 4.57728C48.9949 3.98899 49.8947 3.72112 50.8003 3.83802C51.7058 3.95477 52.5354 4.4456 53.0904 5.19289L75.6491 35.709C76.4535 36.8032 77.8155 37.3207 79.0977 37.0194C80.3797 36.718 81.3279 35.6573 81.4983 34.334L82.5836 26.0008C83.0082 23.3591 85.4453 21.609 88.0873 22.0482C90.7292 22.4875 92.6204 24.9575 92.3582 27.6263L88.7095 52.6971Z" fill="#96BA00"/>
<path d="M95.6038 28.1884C96.142 23.6999 92.9891 19.4845 88.5332 18.7345C84.0773 17.9844 79.9772 20.9792 79.3385 25.4507L78.2469 33.7886L55.6881 3.27233C54.58 1.77393 52.9197 0.788374 51.1066 0.55257C49.2935 0.316767 47.4911 0.852337 46.1328 2.03044C45.3906 2.67746 44.82 3.5015 44.4696 4.43241L44.0166 3.81961C41.8116 0.837424 37.6924 0.143512 34.8159 2.26994C31.9393 4.39637 31.3946 8.53806 33.5994 11.5206L34.0325 12.1064C32.8882 12.2038 31.8007 12.6086 30.8821 13.2794C28.0106 15.4021 27.4619 19.534 29.6556 22.5165L36.9748 32.4174L20.7375 21.3867C19.2178 20.3575 17.3649 19.9983 15.6219 20.3948C13.8789 20.7913 12.4021 21.9078 11.5448 23.4776C11.0874 24.3316 10.842 25.2906 10.8287 26.275L10.2396 25.8774C8.78882 24.895 7.03219 24.519 5.35257 24.8313C2.79005 25.3108 0.819761 27.3152 0.361672 29.9085C-0.096417 32.5017 1.04782 35.173 3.26053 36.6744L3.8255 37.0502C2.81952 37.5337 1.96751 38.2821 1.35557 39.2197C-0.570931 42.2036 0.31403 46.2853 3.33293 48.3398L8.15595 51.6034C7.00616 52.1586 6.05994 53.056 5.4403 54.1796C3.86342 57.249 4.92981 61.11 7.88944 63.0467L34.3545 81.022C36.6634 82.5924 39.1799 83.8131 41.8204 84.6437L57.1835 89.4624C56.5983 90.9147 57.1318 92.6184 58.4545 93.5211L67.954 99.9754C68.6857 100.475 69.5738 100.666 70.4226 100.507C71.2714 100.349 72.0113 99.8531 72.4789 99.1295L75.3077 94.7474C76.4534 95.4468 77.8793 95.3969 78.9242 94.6209L106.266 74.4091C108.418 72.8181 108.825 69.7198 107.176 67.4884L102.178 60.728C100.894 59.0035 98.6895 58.2649 96.7052 58.8946L92.0513 52.599L95.6038 28.1884ZM36.1998 9.59831C35.0946 8.10332 35.3676 6.02739 36.8095 4.96148C38.2515 3.89556 40.3162 4.24338 41.4213 5.73837L55.4583 24.7268C53.2484 25.2773 51.4097 26.7654 50.406 28.8157L36.1998 9.59831ZM32.2562 20.5941C31.452 19.5012 31.3611 18.0491 32.0261 16.9137C32.6912 15.7782 33.9811 15.1827 35.2956 15.4044C36.1568 15.5456 36.9382 16.0279 37.4648 16.7437L49.6202 33.1869C49.6363 33.5086 49.6724 33.8297 49.7283 34.1484L51.5423 42.3084L45.0468 37.8966L32.2562 20.5941ZM9.64905 60.3213C8.15018 59.3563 7.57586 57.4277 8.31833 55.8528C8.74339 55.0761 9.47446 54.5232 10.3374 54.3263C11.2001 54.1293 12.1175 54.3058 12.8711 54.8135L27.8598 64.995C28.0304 65.1063 28.2187 65.1858 28.4151 65.23C28.4693 65.2405 28.5239 65.2482 28.5787 65.2528C28.7187 65.2726 28.8601 65.2737 28.9992 65.2565C29.0555 65.2496 29.1111 65.2397 29.1661 65.2269C29.312 65.1928 29.4514 65.1368 29.5796 65.0609C29.6134 65.0359 29.6555 65.0276 29.6915 65.003C29.7044 64.9935 29.7175 64.9838 29.7318 64.9732C30.1556 64.6597 30.3942 64.1514 30.3708 63.6115C30.3474 63.0716 30.0652 62.5683 29.6144 62.2628L14.634 52.09L5.09513 45.6126C3.60216 44.5954 3.16361 42.5768 4.11506 41.0993C5.07132 39.6261 7.05302 39.2518 8.54983 40.2618L28.9867 54.1421C29.1565 54.2543 29.3444 54.3343 29.5408 54.378C29.5988 54.3913 29.6548 54.3938 29.7135 54.4024C29.8481 54.4203 29.9838 54.4213 30.1176 54.4056C30.1783 54.4 30.2383 54.3905 30.2973 54.377C30.4328 54.3434 30.5626 54.2914 30.6835 54.2228C30.7251 54.1921 30.7758 54.1817 30.8184 54.1524C30.8301 54.1437 30.8418 54.1351 30.8547 54.1255C31.0061 54.0141 31.1357 53.8753 31.2369 53.7158C31.4711 53.3548 31.5503 52.9094 31.4574 52.4777C31.3645 52.0461 31.1066 51.6637 30.741 51.4146L5.02288 33.947C3.52976 32.9299 3.09136 30.9113 4.04282 29.4338C4.49835 28.7222 5.22454 28.2356 6.05787 28.0838C6.88879 27.9284 7.75834 28.1124 8.47758 28.5963L34.197 46.0712C34.8533 46.5159 35.7128 46.4428 36.2531 45.8965C36.7934 45.3502 36.865 44.4813 36.4247 43.8184C36.3007 43.6316 36.141 43.471 35.9554 43.3467L31.5241 40.3412L15.7553 29.6182C14.2569 28.6545 13.682 26.7273 14.4229 25.1528C14.8477 24.3748 15.5795 23.8212 16.4432 23.6242C17.3069 23.4272 18.2254 23.6042 18.9792 24.1132L49.7784 45.0305C50.8861 45.787 52.3136 45.8066 53.3906 45.0803C54.4874 44.37 55.0088 43.0308 54.699 41.7201L52.9228 33.5404C52.5681 31.9566 53.0085 30.3253 54.0983 29.1858C55.1879 28.0465 56.7848 27.5476 58.361 27.8542C60.3354 28.2199 61.9241 29.7714 62.3555 31.7551L67.7718 56.6789C67.7939 56.7422 67.8208 56.8038 67.8519 56.8633C67.8921 57.0071 67.9517 57.1454 68.0289 57.274C68.1534 57.4597 68.3126 57.6195 68.4971 57.7443L74.8224 62.0404L65.2871 76.795C64.7862 76.4489 64.2833 76.1083 63.7818 75.7585C56.7343 70.8445 48.7534 65.2734 39.1747 69.0324C36.0459 70.2729 33.3227 72.3336 31.2769 75.0081L9.64905 60.3213ZM42.6981 81.4832C40.3719 80.751 38.1552 79.6753 36.1208 78.292L34.0646 76.8962C35.7422 74.7678 37.9442 73.1255 40.4624 72.125C48.4322 68.9991 55.0218 73.5956 61.9989 78.4635C62.5133 78.8225 63.0218 79.1651 63.5397 79.5259L58.9808 86.5864L42.6981 81.4832ZM69.7273 97.2545L60.2274 90.7943L61.0579 89.5077L78.4436 62.5831C78.5458 62.4246 78.6754 62.2863 78.8268 62.1749C79.373 61.7699 80.1235 61.763 80.7041 62.1575L87.4408 66.7409C87.8071 66.9899 88.0652 67.3725 88.1586 67.8045C88.2519 68.2364 88.1723 68.6822 87.9378 69.0435L69.7273 97.2545ZM99.5819 62.6496L104.581 69.4068C105.131 70.1506 104.995 71.1833 104.278 71.7136L77.3155 91.6451L85.0608 79.6509L97.3819 70.5426L98.3774 71.8892C98.9273 72.633 99.9544 72.806 100.672 72.2757C101.389 71.7454 101.525 70.7127 100.975 69.9689L99.9796 68.6223C98.8727 67.1354 96.8138 66.7938 95.3778 67.8588L90.2069 71.6813L90.7029 70.9149C91.483 69.6966 91.6696 68.1702 91.2112 66.755L97.2874 62.2633C98.0048 61.7329 99.032 61.9059 99.5819 62.6496ZM88.7095 52.6971L88.7154 52.7052C88.6862 52.936 88.7055 53.1723 88.772 53.3985C88.8254 53.5918 88.9131 53.7747 89.0305 53.9383L89.0375 53.9478L93.9355 60.5735L89.24 64.0446C89.2311 64.0325 89.2211 64.019 89.203 64.0136L82.4587 59.4337C80.7191 58.2652 78.4804 58.2918 76.8496 59.5002L70.8287 55.4122L65.5581 31.1639C64.9034 28.0776 62.549 25.5936 59.5228 24.7959L48.0484 9.27401C46.9253 7.83014 47.0414 5.79797 48.3166 4.57728C48.9949 3.98899 49.8947 3.72112 50.8003 3.83802C51.7058 3.95477 52.5354 4.4456 53.0904 5.19289L75.6491 35.709C76.4535 36.8032 77.8155 37.3207 79.0977 37.0194C80.3797 36.718 81.3279 35.6573 81.4983 34.334L82.5836 26.0008C83.0082 23.3591 85.4453 21.609 88.0873 22.0482C90.7292 22.4875 92.6204 24.9575 92.3582 27.6263L88.7095 52.6971Z" stroke="#96BA00" stroke-width="0.4" mask="url(#path-1-outside-1_724_5149)"/>
</svg>
