<svg width="48" height="48" viewBox="0 0 48 48" fill="none" xmlns="http://www.w3.org/2000/svg">
<path d="M23.6572 3.2572C15.8856 3.2572 9.6001 9.53509 9.6001 17.2972C9.6001 27.8272 23.6572 43.3715 23.6572 43.3715C23.6572 43.3715 37.7144 27.8272 37.7144 17.2972C37.7144 9.53509 31.4288 3.2572 23.6572 3.2572ZM23.6572 22.3115C20.886 22.3115 18.6368 20.0651 18.6368 17.2972C18.6368 14.5293 20.886 12.2829 23.6572 12.2829C26.4285 12.2829 28.6777 14.5293 28.6777 17.2972C28.6777 20.0651 26.4285 22.3115 23.6572 22.3115Z" fill="#5E6C0B"/>
<path d="M23.6572 3.2572C15.8856 3.2572 9.6001 9.53509 9.6001 17.2972C9.6001 27.8272 23.6572 43.3715 23.6572 43.3715C23.6572 43.3715 37.7144 27.8272 37.7144 17.2972C37.7144 9.53509 31.4288 3.2572 23.6572 3.2572ZM23.6572 22.3115C20.886 22.3115 18.6368 20.0651 18.6368 17.2972C18.6368 14.5293 20.886 12.2829 23.6572 12.2829C26.4285 12.2829 28.6777 14.5293 28.6777 17.2972C28.6777 20.0651 26.4285 22.3115 23.6572 22.3115Z" stroke="#830000"/>
<path d="M23.37 44.0656L23.75 44.51L24.13 44.0656C24.5224 43.6068 25.0314 43.0012 25.6227 42.2737C27.0439 40.5255 28.9378 38.0775 30.8304 35.277C32.7242 32.4747 34.6086 29.3314 36.0175 26.1916C37.4303 23.0432 38.3428 19.9467 38.3428 17.225C38.3428 9.171 31.8187 2.6567 23.75 2.6567C15.6813 2.6567 9.15718 9.171 9.15718 17.225C9.15718 19.9467 10.0697 23.0432 11.4825 26.1916C12.8914 29.3314 14.7758 32.4747 16.6696 35.277C18.5622 38.0775 20.4561 40.5255 21.8773 42.2737C22.4686 43.0012 22.9776 43.6068 23.37 44.0656ZM23.75 44.7454C23.6418 44.6216 23.5116 44.4716 23.3616 44.2971C21.8223 42.505 18.2197 38.1439 15.0048 33.0084C11.7747 27.8485 9 22.0053 9 17.225C9 9.08467 15.5943 2.5 23.75 2.5C31.9057 2.5 38.5 9.08467 38.5 17.225C38.5 22.0053 35.7253 27.8485 32.4952 33.0084C29.2803 38.1439 25.6777 42.505 24.1384 44.2971C23.9884 44.4716 23.8582 44.6216 23.75 44.7454ZM23.75 23.3192C20.3811 23.3192 17.6464 20.5897 17.6464 17.225C17.6464 13.8603 20.3811 11.1308 23.75 11.1308C27.1189 11.1308 29.8536 13.8603 29.8536 17.225C29.8536 20.5897 27.1189 23.3192 23.75 23.3192ZM17.8036 17.225C17.8036 20.5034 20.4682 23.1625 23.75 23.1625C27.0318 23.1625 29.6964 20.5034 29.6964 17.225C29.6964 13.9466 27.0318 11.2875 23.75 11.2875C20.4682 11.2875 17.8036 13.9466 17.8036 17.225Z" fill="black" stroke="black"/>
<path fill-rule="evenodd" clip-rule="evenodd" d="M22.9496 42.5626C23.3979 43.0847 23.6572 43.3715 23.6572 43.3715C23.6572 43.3715 23.9166 43.0847 24.3648 42.5626C27.2167 39.2412 37.7144 26.3969 37.7144 17.2972C37.7144 9.53509 31.4288 3.2572 23.6572 3.2572C15.8856 3.2572 9.6001 9.53509 9.6001 17.2972C9.6001 26.3969 20.0978 39.2412 22.9496 42.5626ZM23.6572 41.7491C24.0167 41.3286 24.4834 40.773 25.0258 40.1055C26.3299 38.5006 28.067 36.2543 29.8019 33.686C31.5389 31.1147 33.2606 28.24 34.5447 25.3771C35.8351 22.5002 36.6477 19.7136 36.6477 17.2972C36.6477 10.1254 30.841 4.32387 23.6572 4.32387C16.4735 4.32387 10.6668 10.1254 10.6668 17.2972C10.6668 19.7136 11.4793 22.5002 12.7698 25.3771C14.0539 28.24 15.7756 31.1147 17.5126 33.686C19.2475 36.2543 20.9845 38.5006 22.2886 40.1055C22.8311 40.773 23.2978 41.3286 23.6572 41.7491ZM23.6572 23.3782C20.2981 23.3782 17.5702 20.6554 17.5702 17.2972C17.5702 13.939 20.2981 11.2163 23.6572 11.2163C27.0164 11.2163 29.7443 13.939 29.7443 17.2972C29.7443 20.6554 27.0164 23.3782 23.6572 23.3782ZM18.6368 17.2972C18.6368 20.0651 20.886 22.3115 23.6572 22.3115C26.4285 22.3115 28.6776 20.0651 28.6776 17.2972C28.6776 14.5293 26.4285 12.2829 23.6572 12.2829C20.886 12.2829 18.6368 14.5293 18.6368 17.2972Z" fill="#FEFEFE"/>
<path d="M36 17C36 23.9036 30.4036 29.5 23.5 29.5C16.5964 29.5 11 23.9036 11 17C11 10.0964 16.5964 4.5 23.5 4.5C30.4036 4.5 36 10.0964 36 17Z" fill="#5E6C0B"/>
<path fill-rule="evenodd" clip-rule="evenodd" d="M24 16.074C22.9791 16.074 21.9675 16.1103 20.9666 16.1817C20.2399 16.2336 19.5189 16.3039 18.804 16.3921L19.6325 26.334C19.6784 26.8852 20.1763 27.3108 20.7751 27.3108H27.2249C27.8237 27.3108 28.3215 26.8852 28.3675 26.334L29.196 16.3921C28.4811 16.3039 27.7601 16.2336 27.0334 16.1817C26.0325 16.1103 25.0209 16.074 24 16.074ZM30.5971 16.5892C30.6223 16.5932 30.6474 16.5972 30.6726 16.6012C31.0571 16.6627 31.4229 16.4248 31.4895 16.0698C31.5561 15.7148 31.2984 15.3772 30.9138 15.3157C30.6292 15.2702 30.3435 15.2274 30.0569 15.1875C29.096 15.0535 28.124 14.951 27.1423 14.8809C26.1052 14.807 25.0573 14.7693 24 14.7693C22.9427 14.7693 21.8948 14.807 20.8577 14.8809C19.876 14.951 18.904 15.0535 17.9431 15.1875C17.6565 15.2274 17.3708 15.2702 17.0862 15.3157C16.7016 15.3772 16.4439 15.7148 16.5105 16.0698C16.5771 16.4248 16.9429 16.6627 17.3274 16.6012C17.3526 16.5972 17.3777 16.5932 17.4029 16.5892L18.2233 26.4341C18.3259 27.665 19.4378 28.6154 20.7751 28.6154H27.2249C28.5622 28.6154 29.6741 27.665 29.7767 26.4341L30.5971 16.5892ZM21.7164 17.6201C22.1064 17.6063 22.4347 17.8869 22.4497 18.2469L22.7347 25.0877C22.7497 25.4477 22.4457 25.7508 22.0557 25.7646C21.6657 25.7785 21.3374 25.4978 21.3224 25.1378L21.0374 18.297C21.0224 17.937 21.3264 17.634 21.7164 17.6201ZM26.2836 17.6201C26.6736 17.634 26.9776 17.937 26.9626 18.297L26.6776 25.1378C26.6626 25.4978 26.3343 25.7785 25.9443 25.7646C25.5543 25.7508 25.2503 25.4477 25.2653 25.0877L25.5503 18.2469C25.5653 17.8869 25.8936 17.6063 26.2836 17.6201Z" fill="white"/>
<path d="M20.8728 12.028C21.0986 11.5593 21.6891 11.3501 22.1915 11.5608V11.5608C22.694 11.7715 22.9182 12.3223 22.6923 12.791V12.791C22.4664 13.2597 21.876 13.4688 21.3735 13.2581V13.2581C20.8711 13.0474 20.6469 12.4967 20.8728 12.028V12.028Z" fill="white"/>
<path fill-rule="evenodd" clip-rule="evenodd" d="M22.1731 12.5733C22.2701 12.372 22.1738 12.1356 21.9581 12.0452C21.7424 11.9547 21.4889 12.0445 21.392 12.2457C21.295 12.4469 21.3913 12.6833 21.607 12.7738C21.8227 12.8642 22.0761 12.7745 22.1731 12.5733ZM22.1915 11.5608C21.6891 11.3501 21.0986 11.5593 20.8728 12.028C20.6469 12.4967 20.8711 13.0474 21.3735 13.2581C21.876 13.4688 22.4664 13.2597 22.6923 12.791C22.9182 12.3223 22.694 11.7715 22.1915 11.5608Z" fill="white"/>
<path d="M22.6183 9.91928C22.7034 9.41158 23.2137 9.06438 23.7579 9.1438V9.1438C24.3022 9.22322 24.6744 9.69917 24.5893 10.2069V10.2069C24.5041 10.7146 23.9939 11.0618 23.4496 10.9824V10.9824C22.9054 10.9029 22.5332 10.427 22.6183 9.91928V9.91928Z" fill="white"/>
<path fill-rule="evenodd" clip-rule="evenodd" d="M24.0269 10.1248C24.0634 9.90686 23.9036 9.70253 23.67 9.66844C23.4363 9.63434 23.2173 9.78339 23.1807 10.0013C23.1442 10.2193 23.304 10.4236 23.5376 10.4577C23.7713 10.4918 23.9903 10.3428 24.0269 10.1248ZM23.7579 9.1438C23.2137 9.06438 22.7034 9.41158 22.6183 9.91928C22.5332 10.427 22.9054 10.9029 23.4496 10.9824C23.9939 11.0618 24.5041 10.7146 24.5893 10.2069C24.6744 9.69917 24.3022 9.22322 23.7579 9.1438Z" fill="white"/>
<path d="M24.996 11.4158C25.3059 10.9469 25.9646 10.8011 26.4673 11.0902L26.5773 11.1535C27.08 11.4425 27.2363 12.057 26.9264 12.5259L26.8586 12.6285C26.5487 13.0975 25.89 13.2433 25.3873 12.9542L25.2773 12.8909C24.7746 12.6018 24.6183 11.9874 24.9282 11.5185L24.996 11.4158Z" fill="white"/>
<path fill-rule="evenodd" clip-rule="evenodd" d="M25.6839 11.8822C25.6757 11.902 25.6696 11.9221 25.6656 11.9425C25.6656 11.9425 25.6656 11.9425 25.6656 11.9425C25.6476 12.0339 25.6718 12.1289 25.7319 12.2031C25.7319 12.2031 25.7319 12.2031 25.7319 12.2031C25.7452 12.2196 25.7604 12.2351 25.7773 12.2493C25.7984 12.2569 25.8201 12.2626 25.8419 12.2663C25.8419 12.2663 25.8419 12.2663 25.8419 12.2663C25.9399 12.2831 26.0417 12.2606 26.1212 12.2045C26.1212 12.2045 26.1212 12.2045 26.1212 12.2045C26.1389 12.192 26.1555 12.1779 26.1707 12.1622C26.179 12.1424 26.1851 12.1222 26.1891 12.1019C26.1891 12.1019 26.1891 12.1019 26.1891 12.1019C26.207 12.0104 26.1829 11.9155 26.1228 11.8413C26.1228 11.8413 26.1228 11.8413 26.1228 11.8413C26.1094 11.8248 26.0942 11.8093 26.0774 11.7951C26.0562 11.7874 26.0346 11.7818 26.0128 11.778C26.0128 11.778 26.0128 11.778 26.0128 11.778C25.9147 11.7613 25.8129 11.7838 25.7334 11.8399C25.7334 11.8399 25.7334 11.8399 25.7334 11.8399C25.7157 11.8523 25.6991 11.8665 25.6839 11.8822ZM26.4673 11.0902C25.9646 10.8011 25.3059 10.9469 24.996 11.4158L24.9282 11.5185C24.6183 11.9874 24.7746 12.6018 25.2773 12.8909L25.3873 12.9542C25.89 13.2433 26.5487 13.0975 26.8586 12.6285L26.9264 12.5259C27.2363 12.057 27.08 11.4425 26.5773 11.1535L26.4673 11.0902Z" fill="white"/>
</svg>
