<svg width="96" height="94" viewBox="0 0 96 94" fill="none" xmlns="http://www.w3.org/2000/svg">
<path d="M39.8433 5.38099C41.1583 4.96007 41.8831 3.55284 41.4621 2.23785C41.0412 0.922866 39.634 0.198084 38.319 0.619006L39.8433 5.38099ZM4.82673 45.1289L7.32646 45.0921L4.82673 45.1289ZM55.6899 5.1351C54.3122 5.04316 53.1209 6.08543 53.029 7.46308C52.937 8.84073 53.9793 10.0321 55.357 10.124L55.6899 5.1351ZM33.0967 69.7615C32.127 68.7786 30.5441 68.7679 29.5612 69.7376C28.5783 70.7073 28.5676 72.2901 29.5373 73.273L33.0967 69.7615ZM67.6174 69.2805C68.6832 68.4027 68.8357 66.8272 67.9579 65.7614C67.0801 64.6956 65.5046 64.5432 64.4388 65.4209L67.6174 69.2805ZM3.428 27.8512C2.06768 27.6149 0.773289 28.526 0.53691 29.8863C0.30053 31.2467 1.21167 32.541 2.572 32.7774L3.428 27.8512ZM89.7678 26.627C91.0552 26.128 91.6944 24.6799 91.1954 23.3925C90.6965 22.1051 89.2484 21.4659 87.961 21.9649L89.7678 26.627ZM49.3911 51.5951C50.1498 50.4416 49.8297 48.8913 48.6761 48.1326C47.5225 47.3739 45.9723 47.694 45.2136 48.8476L49.3911 51.5951ZM50.8847 66.1172C52.2489 65.9045 53.1823 64.6261 52.9696 63.2619C52.7569 61.8976 51.4785 60.9642 50.1142 61.1769L50.8847 66.1172ZM38.319 0.619006C32.2228 2.57038 23.2149 7.07998 15.7349 14.3559C8.21951 21.6661 2.13162 31.8965 2.32701 45.1657L7.32646 45.0921C7.15647 33.5469 12.4106 24.5647 19.2212 17.94C26.0671 11.2809 34.3691 7.13325 39.8433 5.38099L38.319 0.619006ZM2.32701 45.1657C2.80497 77.6263 26.3988 94.4454 48.7826 93.459L48.5625 88.4638C28.9276 89.3291 7.76195 74.6674 7.32646 45.0921L2.32701 45.1657ZM48.7826 93.459C60.0464 92.9626 71.8848 86.8169 80.7365 78.682C89.5247 70.6053 95.985 59.981 95.4716 50.0917L90.4783 50.351C90.8783 58.054 85.6921 67.3367 77.3531 75.0006C69.0775 82.6061 58.308 88.0343 48.5625 88.4638L48.7826 93.459ZM95.4716 50.0917C94.9895 40.8078 91.395 30.0705 84.8021 21.4086C78.1789 12.7068 68.4274 5.98513 55.6899 5.1351L55.357 10.124C66.3691 10.8589 74.8867 16.637 80.8235 24.4368C86.7905 32.2765 90.0469 42.0427 90.4783 50.351L95.4716 50.0917ZM29.5373 73.273C32.332 76.1059 40.1027 81.1097 49.3387 78.5565L48.0064 73.7372C41.1656 75.6283 35.1737 71.8669 33.0967 69.7615L29.5373 73.273ZM49.3387 78.5565C57.7911 76.2198 64.9793 71.4532 67.6174 69.2805L64.4388 65.4209C62.2052 67.2605 55.6308 71.6295 48.0064 73.7372L49.3387 78.5565ZM2.572 32.7774L18.5574 35.5551L19.4134 30.629L3.428 27.8512L2.572 32.7774ZM16.4854 33.0921C16.4854 36.2625 17.2546 41.0198 19.6688 45.0764C22.16 49.2625 26.4477 52.7214 33.1439 52.7214V47.7214C28.5133 47.7214 25.7217 45.4704 23.9654 42.5193C22.1321 39.4387 21.4854 35.6314 21.4854 33.0921H16.4854ZM33.1439 52.7214C36.4143 52.7214 39.1139 51.8899 41.2594 50.4023C43.3913 48.9242 44.815 46.9105 45.7354 44.7954C47.542 40.6438 47.5331 35.838 47.0306 32.6971L42.0934 33.487C42.5044 36.0559 42.4499 39.8147 41.1507 42.8004C40.5182 44.2538 39.624 45.4519 38.4104 46.2934C37.2104 47.1254 35.5368 47.7214 33.1439 47.7214V52.7214ZM44.562 30.5921H18.9854V35.5921H44.562V30.5921ZM87.961 21.9649L72.4323 27.9833L74.2392 32.6454L89.7678 26.627L87.961 21.9649ZM70.9689 31.1195C71.6343 33.0755 72.0605 35.7886 71.398 38.299C70.7768 40.653 69.1427 43.0832 65.12 44.6514L66.9362 49.3099C72.4135 47.1746 75.1943 43.5091 76.2325 39.5747C77.2295 35.7966 76.5595 32.0284 75.7025 29.5092L70.9689 31.1195ZM65.12 44.6514C61.5505 46.0431 57.5824 44.7937 53.9627 41.9482C50.3379 39.0987 47.7151 35.1263 46.9723 32.4285L42.1517 33.7556C43.2359 37.6935 46.5962 42.5172 50.8727 45.879C55.1543 49.2449 61.0058 51.622 66.9362 49.3099L65.12 44.6514ZM44.8022 35.5805L73.576 32.8028L73.0955 27.8259L44.3218 30.6036L44.8022 35.5805ZM45.2136 48.8476C44.1017 50.5383 42.5188 53.2069 41.3882 55.7424C40.828 56.9984 40.3273 58.3347 40.0814 59.5598C39.9582 60.1735 39.8787 60.8549 39.9319 61.5367C39.9847 62.2134 40.1827 63.0595 40.7727 63.807L44.6976 60.7094C44.9221 60.9939 44.9222 61.218 44.9168 61.1477C44.9117 61.0827 44.9136 60.8925 44.9835 60.544C45.1239 59.845 45.4567 58.8954 45.9547 57.7788C46.9401 55.569 48.3717 53.1451 49.3911 51.5951L45.2136 48.8476ZM40.7727 63.807C41.516 64.7488 42.5115 65.3036 43.4073 65.6401C44.3146 65.981 45.281 66.1592 46.1692 66.2499C47.9388 66.4306 49.7344 66.2966 50.8847 66.1172L50.1142 61.1769C49.2854 61.3062 47.9296 61.4036 46.6772 61.2757C46.0543 61.2121 45.5421 61.1009 45.1658 60.9596C44.778 60.8139 44.685 60.6935 44.6976 60.7094L40.7727 63.807Z" fill="#96BA00"/>
</svg>
