<svg width="78" height="89" viewBox="0 0 78 89" fill="none" xmlns="http://www.w3.org/2000/svg">
<path d="M16.2202 5.24461C21.4397 3.54988 36.2423 9.55733 38.1385 11.7185C40.0223 13.8687 27.7245 14.7574 21.0477 15.747C14.1584 16.7834 7.28704 18.0213 5.40876 15.8532C3.53187 13.7155 11.0077 6.95038 16.2202 5.24461Z" fill="#96BA00"/>
<path d="M52.1435 1.47697C58.1082 -0.264683 74.1032 6.89789 76.0353 9.33786C77.9481 11.8082 64.1943 12.4237 56.6867 13.3304C48.9155 14.2606 41.1319 15.4281 39.2177 12.9688C37.2912 10.5289 46.1995 3.20068 52.1476 1.47697" fill="#96BA00"/>
<path d="M17.134 11.3707C20.718 9.01357 36.1431 11.4246 38.7432 12.9054C41.368 14.3738 31.4219 17.3478 26.2535 19.3793C20.9388 21.4811 15.7318 23.7859 13.1138 22.2816C10.4793 20.8187 13.5651 13.7514 17.1368 11.3707" fill="#96BA00"/>
<path d="M31.594 0.168662C36.812 0.636506 42.3033 9.7643 41.7941 11.9269C41.3028 14.077 31.6533 10.7538 25.9716 9.30336C20.1201 7.81564 14.0836 6.50043 14.6053 4.35028C15.109 2.17667 26.3635 -0.293662 31.594 0.168662Z" fill="#96BA00"/>
<path d="M49.4659 10.3746C54.7032 10.8245 60.189 19.9592 59.6784 22.1149C59.1692 24.2774 49.5252 20.9473 43.8435 19.5024C38.0085 18.0216 31.9541 16.6884 32.4758 14.5327C32.9699 12.3771 44.2478 9.91917 49.4659 10.3787" fill="#96BA00"/>
<path d="M0.998535 71.3056C0.998535 84.3211 19.5991 88.1121 39.497 88.1121C59.3935 88.1121 78.001 84.3211 78.001 71.3056C78.001 58.315 59.3949 19.5088 39.497 19.5088C19.5991 19.5088 0.998535 58.3164 0.998535 71.3056Z" fill="#96BA00"/>
<path d="M51.4396 21.1084C51.44 21.7557 51.3127 22.3967 51.0652 22.9948C50.8176 23.5929 50.4547 24.1363 49.997 24.594C49.5392 25.0517 48.9958 25.4147 48.3977 25.6622C47.7997 25.9098 47.1586 26.037 46.5114 26.0366H32.4829C31.1759 26.0366 29.9224 25.5174 28.9981 24.5932C28.0739 23.669 27.5547 22.4155 27.5547 21.1084C27.5547 19.8014 28.0739 18.5478 28.9981 17.6236C29.9224 16.6994 31.1759 16.1802 32.4829 16.1802H46.51C47.1573 16.18 47.7983 16.3073 48.3964 16.5549C48.9944 16.8025 49.5379 17.1655 49.9957 17.6231C50.4534 18.0808 50.8166 18.6241 51.0643 19.2221C51.3121 19.8202 51.4396 20.4611 51.4396 21.1084Z" fill="#96BA00"/>
</svg>
