<svg width="29" height="29" viewBox="0 0 29 29" fill="red" stroke="red" xmlns="http://www.w3.org/2000/svg">
<path d="M25.8929 0H3.10714C1.39174 0 0 1.39174 0 3.10714V25.8929C0 27.6083 1.39174 29 3.10714 29H25.8929C27.6083 29 29 27.6083 29 25.8929V3.10714C29 1.39174 27.6083 0 25.8929 0ZM22.7275 10.2795C22.7404 10.4607 22.7404 10.6484 22.7404 10.8297C22.7404 16.442 18.4681 22.9087 10.6614 22.9087C8.25335 22.9087 6.02009 22.2096 4.14286 21.0056C4.48594 21.0444 4.81607 21.0574 5.16563 21.0574C7.1529 21.0574 8.97835 20.3842 10.4348 19.2449C8.57054 19.206 7.00402 17.9826 6.46674 16.2996C7.12054 16.3967 7.7096 16.3967 8.38281 16.2219C6.44085 15.827 4.98438 14.1181 4.98438 12.0531V12.0013C5.54754 12.3185 6.20781 12.5127 6.90045 12.5386C6.31813 12.1513 5.84077 11.6258 5.51095 11.0091C5.18113 10.3924 5.00912 9.70361 5.01027 9.00424C5.01027 8.21451 5.21741 7.48951 5.58638 6.86161C7.67723 9.43795 10.8167 11.121 14.3382 11.3022C13.7362 8.42165 15.8917 6.08482 18.481 6.08482C19.7045 6.08482 20.8049 6.59621 21.5817 7.42478C22.5397 7.24353 23.4589 6.8875 24.2746 6.40201C23.9574 7.38594 23.2906 8.21451 22.4103 8.73884C23.2647 8.64821 24.0933 8.40871 24.8571 8.07857C24.281 8.92656 23.556 9.67745 22.7275 10.2795Z" fill="white"/>
</svg>
