<svg width="83" height="105" viewBox="0 0 83 105" fill="none" xmlns="http://www.w3.org/2000/svg">
<path d="M60.5739 61.9458C60.5739 61.9458 49.0442 12.3479 46.4948 7.24921C43.5777 1.41494 39.5326 1.27869 37.5445 7.24921C37.5445 7.24921 36.9566 9.61185 35.9819 13.5439M60.5739 61.9458C60.5739 61.9458 61.2882 63.7791 63.9401 76.3197C66.5921 88.8603 17.5308 86.9272 19.5197 76.3197C19.8548 74.5328 20.7128 72.5431 21.7893 67.9127C22.2147 66.0829 22.9408 64.0808 23.4467 61.9458M60.5739 61.9458L77.8119 72.4977C80.4639 74.1552 80.7954 77.4702 78.8064 79.4591C76.2558 82.0097 53.2811 100.008 49.3032 101.997C49.3032 101.997 45.1927 103.854 42.0103 101.997C38.828 100.141 15.1598 86.752 6.20949 80.4536L4.88273 79.4552C3.22527 78.3503 0.905235 75.8087 4.88285 73.1568L23.4467 61.9458M23.4467 61.9458C26.4761 52.3884 25.8318 53.5656 28.6107 42.2288M28.6107 42.2288C29.727 37.6745 32.0159 29.2367 33.0152 25.1833M28.6107 42.2288C35.1652 43.2753 50.6537 44.7405 55.3152 42.2288M33.0152 25.1833C37.3622 26.6198 49.803 27.3049 51.6594 25.1833M33.0152 25.1833C34.4132 19.5125 35.0835 17.1687 35.9819 13.5439M35.9819 13.5439C38.0394 14.3174 46.0601 14.8699 48.4711 13.5439M26.3379 52.4561C33.1561 54.1606 49.9743 56.547 58.1561 52.4561" stroke="#005C4C" stroke-width="4.12503" stroke-linecap="round"/>
</svg>
