<svg width="75" height="104" viewBox="0 0 75 104" fill="none" xmlns="http://www.w3.org/2000/svg">
<ellipse cx="37.5" cy="40" rx="35.5" ry="14" stroke="#96BA00" stroke-width="4" stroke-linecap="round" stroke-linejoin="round"/>
<path d="M8.98289 53.5324C8.83869 52.4373 7.83404 51.6664 6.73892 51.8106C5.6438 51.9548 4.87292 52.9594 5.01711 54.0546L8.98289 53.5324ZM14.625 92.2039L13.0207 93.3982L14.625 92.2039ZM61.7614 92.2039L60.1571 91.0096L61.7614 92.2039ZM69.9966 51.1166C70.061 50.0139 69.2193 49.0678 68.1166 49.0034C67.0139 48.939 66.0678 49.7807 66.0034 50.8834L69.9966 51.1166ZM5.01711 54.0546C5.7708 59.7787 7.05794 68.577 8.472 76.376C9.17845 80.2722 9.92169 83.9478 10.6514 86.8758C11.0158 88.3379 11.3841 89.6435 11.7515 90.7102C12.0985 91.7175 12.5094 92.7113 13.0207 93.3982L16.2293 91.0096C16.1167 90.8585 15.8684 90.3799 15.5335 89.4075C15.219 88.4947 14.8828 87.3133 14.5327 85.9085C13.8334 83.1026 13.108 79.5238 12.4078 75.6623C11.0087 67.9459 9.73109 59.215 8.98289 53.5324L5.01711 54.0546ZM13.0207 93.3982C14.7936 95.7798 17.8147 98.3117 21.4709 100.292C25.1453 102.281 29.6011 103.79 34.3001 103.979L34.4612 99.9827C30.4955 99.8229 26.6331 98.5382 23.3757 96.7742C20.1 95.0004 17.5757 92.8183 16.2293 91.0096L13.0207 93.3982ZM34.3001 103.979C38.9517 104.167 45.0113 103.053 50.4068 101.211C53.1205 100.285 55.7254 99.1545 57.9483 97.869C60.145 96.5986 62.0957 95.1041 63.3656 93.3982L60.1571 91.0096C59.3475 92.0972 57.9189 93.2653 55.9457 94.4064C53.9986 95.5324 51.643 96.5626 49.1145 97.4258C44.0257 99.1631 38.4744 100.144 34.4612 99.9827L34.3001 103.979ZM63.3656 93.3982C63.974 92.5809 64.4528 91.461 64.8519 90.2749C65.264 89.0498 65.6443 87.5887 65.9963 85.9764C66.7009 82.7497 67.3204 78.7868 67.8523 74.6319C68.9169 66.3153 69.6482 57.0837 69.9966 51.1166L66.0034 50.8834C65.6586 56.7886 64.9343 65.9242 63.8847 74.124C63.3594 78.2274 62.7572 82.0601 62.0884 85.1231C61.7538 86.6557 61.4094 87.9629 61.0607 88.9994C60.6989 90.0747 60.3805 90.7095 60.1571 91.0096L63.3656 93.3982Z" fill="#96BA00"/>
<path d="M73 41C73 52.0457 57.1061 61 37.5 61C17.8939 61 2 52.0457 2 41" stroke="#96BA00" stroke-width="4" stroke-linecap="round" stroke-linejoin="round"/>
<path d="M0.0406252 36.8662C-0.180875 37.9483 0.516806 39.0051 1.59894 39.2266C2.68107 39.4481 3.73787 38.7505 3.95937 37.6683L0.0406252 36.8662ZM7.46154 17.3289L9.25116 18.2218L7.46154 17.3289ZM71.0867 37.8497C71.4084 38.9064 72.5258 39.5022 73.5825 39.1806C74.6392 38.8589 75.235 37.7415 74.9133 36.6848L71.0867 37.8497ZM3.95937 37.6683C4.47422 35.1531 5.36405 31.1404 6.35524 27.2994C7.36573 23.3835 8.42493 19.8778 9.25116 18.2218L5.67192 16.436C4.62562 18.5331 3.4742 22.4554 2.48212 26.2999C1.47075 30.2191 0.566074 34.2991 0.0406252 36.8662L3.95937 37.6683ZM9.25116 18.2218C10.2474 16.225 13.213 12.3739 18.0291 9.17181C22.7967 6.00189 29.2909 3.52569 37.3637 4.07729L37.6363 0.0865978C28.5443 -0.534645 21.1896 2.26695 15.8144 5.84088C10.4876 9.3826 7.01632 13.7414 5.67192 16.436L9.25116 18.2218ZM37.3637 4.07729C45.5112 4.634 52.1678 7.48701 57.6498 12.8892C63.1776 18.3366 67.6298 26.4945 71.0867 37.8497L74.9133 36.6848C71.3482 24.974 66.6329 16.1257 60.4574 10.0401C54.2361 3.90939 46.6537 0.702736 37.6363 0.0865978L37.3637 4.07729Z" fill="#96BA00"/>
</svg>
