<svg width="109" height="94" viewBox="0 0 109 94" fill="none" xmlns="http://www.w3.org/2000/svg">
<path d="M3 19.4553H39.8997M106.219 19.4553H70.8156M39.8997 19.4553H16.4634L24.9404 79.7912C25.1066 82.2844 26.536 87.7695 30.9241 89.7641C35.3122 91.7587 74.3061 90.8861 76.7994 90.2627C79.2926 89.6394 83.7804 87.7695 85.2763 83.2817C85.9815 81.1662 90.2628 39.5672 92.756 19.4553H70.8156M39.8997 19.4553V7.98644C40.0659 6.65672 41.994 3 46.3821 3C55.3577 3 59.8455 3 64.3333 3C68.8211 3 70.8156 5.48933 70.8156 7.98644C70.8156 10.7789 70.8156 16.4634 70.8156 19.4553M39.8997 19.4553H70.8156M55.3577 29.9268V79.7912M76.7994 29.9268L70.8156 79.7912M34.9132 29.9268L39.8997 79.7912" stroke="#005C4C" stroke-width="5" stroke-linecap="round" stroke-linejoin="round"/>
</svg>
