<svg width="180" height="132" viewBox="0 0 180 132" fill="none" xmlns="http://www.w3.org/2000/svg">
<path fill-rule="evenodd" clip-rule="evenodd" d="M4.15777 139.059C2.35992 139.059 0.913818 137.606 0.913818 135.799V135.288C0.952902 108.107 18.1498 83.9113 43.7106 75.0735L49.495 73.0703L44.2968 69.8102C39.6068 66.825 35.542 62.7792 32.5717 58.0265C27.2954 49.5815 25.6148 39.6047 27.8425 29.8635C30.0703 20.1616 35.8938 11.8738 44.2968 6.57115C50.2375 2.83965 57.0381 0.87571 63.995 0.87571C76.8536 0.87571 88.6569 7.396 95.4575 18.3548C100.734 26.7998 102.414 36.7766 100.187 46.5178C97.9588 56.2197 92.1354 64.5075 83.7323 69.8102L78.4951 73.1096L85.6708 75.8817C91.2252 77.9512 90.5229 79.8663 89.9714 81.3703C89.9414 81.4521 89.9118 81.5328 89.8837 81.6122C89.3395 83.15 85.6708 83.2989 83.7323 82.3811L83.5652 82.302C78.1705 79.7471 74.605 78.0586 62.457 78.0586C33.3005 78.0586 10.4655 100.094 7.41692 129.278L7.06517 132.539H93.1841C95.7471 132.223 98.5665 133.13 98.5665 136.205C98.5665 139.281 94.9819 139.281 93.1841 139.281L4.15777 139.098V139.059ZM63.8892 7.027C47.005 7.027 33.2475 20.8532 33.2084 37.8217C33.1793 50.4472 42.1359 68.1323 63.0513 68.1323C84.2127 68.1323 95.3125 50.4472 94.5699 37.8609C94.5699 20.8532 80.8124 7.027 63.8892 7.027Z" fill="#696B72"/>
<g clip-path="url(#clip0_1209_12927)">
<path d="M119.866 69.715C114.557 71.1783 109.284 72.7694 104.051 74.4869C103.573 74.6417 103.148 74.9276 102.825 75.3119C102.502 75.6963 102.293 76.1638 102.222 76.661C99.1341 99.8349 106.27 116.743 114.782 127.881C118.386 132.644 122.684 136.84 127.531 140.329C129.46 141.689 131.166 142.671 132.51 143.301C133.179 143.618 133.725 143.83 134.143 143.958C134.326 144.023 134.514 144.069 134.706 144.098C134.895 144.067 135.082 144.02 135.263 143.958C135.687 143.83 136.233 143.618 136.902 143.301C138.24 142.671 139.952 141.684 141.881 140.329C146.728 136.84 151.026 132.644 154.63 127.881C163.142 116.748 170.278 99.8349 167.19 76.661C167.12 76.1635 166.911 75.6958 166.588 75.3113C166.264 74.9268 165.839 74.6411 165.361 74.4869C161.732 73.2995 155.605 71.3651 149.546 69.7206C143.358 68.0426 137.666 66.7995 134.706 66.7995C131.751 66.7995 126.054 68.0426 119.866 69.7206V69.715ZM118.383 63.9731C124.432 62.3286 130.859 60.8513 134.706 60.8513C138.553 60.8513 144.98 62.3286 151.029 63.9731C157.217 65.6455 163.455 67.6245 167.123 68.8231C168.656 69.3295 170.016 70.2584 171.045 71.5028C172.075 72.7473 172.733 74.2569 172.943 75.8583C176.265 100.816 168.555 119.313 159.201 131.549C155.234 136.784 150.505 141.393 145.17 145.224C143.325 146.549 141.37 147.715 139.327 148.708C137.767 149.444 136.089 150.046 134.706 150.046C133.323 150.046 131.651 149.444 130.085 148.708C128.042 147.715 126.087 146.549 124.242 145.224C118.908 141.393 114.178 136.784 110.211 131.549C100.857 119.313 93.1469 100.816 96.4694 75.8583C96.6795 74.2569 97.3371 72.7473 98.3666 71.5028C99.3961 70.2584 100.756 69.3295 102.289 68.8231C107.614 67.0771 112.98 65.46 118.383 63.9731Z" fill="#96BA00"/>
<path d="M150.617 89.5387C150.876 89.7977 151.082 90.1052 151.223 90.4439C151.363 90.7825 151.436 91.1455 151.436 91.5122C151.436 91.8788 151.363 92.2418 151.223 92.5805C151.082 92.9191 150.876 93.2267 150.617 93.4856L133.893 110.21C133.634 110.469 133.326 110.675 132.988 110.816C132.649 110.956 132.286 111.028 131.919 111.028C131.553 111.028 131.19 110.956 130.851 110.816C130.513 110.675 130.205 110.469 129.946 110.21L121.584 101.848C121.325 101.588 121.119 101.281 120.979 100.942C120.839 100.604 120.767 100.241 120.767 99.8742C120.767 99.5077 120.839 99.1448 120.979 98.8062C121.119 98.4676 121.325 98.1599 121.584 97.9007C121.843 97.6416 122.151 97.436 122.489 97.2958C122.828 97.1555 123.191 97.0833 123.557 97.0833C123.924 97.0833 124.287 97.1555 124.625 97.2958C124.964 97.436 125.272 97.6416 125.531 97.9007L131.919 104.295L146.67 89.5387C146.929 89.2792 147.237 89.0732 147.575 88.9327C147.914 88.7922 148.277 88.7199 148.643 88.7199C149.01 88.7199 149.373 88.7922 149.712 88.9327C150.05 89.0732 150.358 89.2792 150.617 89.5387Z" fill="#96BA00"/>
</g>
<defs>
<clipPath id="clip0_1209_12927">
<rect width="89.1946" height="89.1946" fill="white" transform="translate(90.1082 60.8513)"/>
</clipPath>
</defs>
</svg>
