<svg width="145" height="132" viewBox="0 0 145 132" fill="none" xmlns="http://www.w3.org/2000/svg">
<path d="M53.7958 120.109H16.0725C7.40246 120.109 0.354492 113.019 0.354492 104.312V28.4891C0.354492 19.7821 7.40246 12.6927 16.0725 12.6927H110.381C119.051 12.6927 126.099 19.7821 126.099 28.4891V53.7635C126.099 55.5138 124.69 56.9228 122.955 56.9228C121.22 56.9228 119.812 55.5138 119.812 53.7635V28.4891C119.812 23.2637 115.58 19.0113 110.381 19.0113H16.0725C10.873 19.0113 6.6417 23.2637 6.6417 28.4891V104.312C6.6417 109.538 10.873 113.79 16.0725 113.79H53.7958C55.5311 113.79 56.9394 115.205 56.9394 116.949C56.9394 118.693 55.5311 120.109 53.7958 120.109Z" fill="#6B6F74"/>
<path d="M122.955 44.2859H3.4981C1.76283 44.2859 0.354492 42.8706 0.354492 41.1266C0.354492 39.3827 1.76283 37.9674 3.4981 37.9674H122.955C124.69 37.9674 126.099 39.3827 126.099 41.1266C126.099 42.8706 124.69 44.2859 122.955 44.2859Z" fill="#6B6F74"/>
<path d="M28.6492 31.6488C26.9139 31.6488 25.5056 30.2334 25.5056 28.4895V3.21507C25.5056 1.47114 26.9139 0.0557739 28.6492 0.0557739C30.3845 0.0557739 31.7928 1.47114 31.7928 3.21507V28.4895C31.7928 30.2334 30.3845 31.6488 28.6492 31.6488Z" fill="#6B6F74"/>
<path d="M97.8074 31.6488C96.0721 31.6488 94.6638 30.2335 94.6638 28.4895V3.21512C94.6638 1.47118 96.0721 0.055817 97.8074 0.055817C99.5426 0.055817 100.951 1.47118 100.951 3.21512V28.4895C100.951 30.2335 99.5426 31.6488 97.8074 31.6488Z" fill="#6B6F74"/>
<g clip-path="url(#clip0_1209_12909)">
<path d="M103.627 137.046C94.1781 137.046 85.116 133.293 78.4344 126.611C71.7528 119.93 67.9992 110.867 67.9992 101.418C67.9992 91.969 71.7528 82.9069 78.4344 76.2253C85.116 69.5437 94.1781 65.79 103.627 65.79C113.076 65.79 122.139 69.5437 128.82 76.2253C135.502 82.9069 139.255 91.969 139.255 101.418C139.255 110.867 135.502 119.93 128.82 126.611C122.139 133.293 113.076 137.046 103.627 137.046ZM103.627 142.136C114.426 142.136 124.783 137.846 132.419 130.21C140.055 122.574 144.345 112.217 144.345 101.418C144.345 90.6191 140.055 80.2624 132.419 72.6263C124.783 64.9902 114.426 60.7003 103.627 60.7003C92.8283 60.7003 82.4715 64.9902 74.8354 72.6263C67.1993 80.2624 62.9094 90.6191 62.9094 101.418C62.9094 112.217 67.1993 122.574 74.8354 130.21C82.4715 137.846 92.8283 142.136 103.627 142.136Z" fill="#96BA00"/>
<path d="M103.628 81.0593C104.302 81.0593 104.95 81.3274 105.427 81.8046C105.904 82.2819 106.172 82.9292 106.172 83.6041V98.8733H121.442C122.117 98.8733 122.764 99.1415 123.241 99.6187C123.718 100.096 123.986 100.743 123.986 101.418C123.986 102.093 123.718 102.74 123.241 103.218C122.764 103.695 122.117 103.963 121.442 103.963H106.172V119.232C106.172 119.907 105.904 120.555 105.427 121.032C104.95 121.509 104.302 121.777 103.628 121.777C102.953 121.777 102.305 121.509 101.828 121.032C101.351 120.555 101.083 119.907 101.083 119.232V103.963H85.8134C85.1385 103.963 84.4912 103.695 84.0139 103.218C83.5367 102.74 83.2686 102.093 83.2686 101.418C83.2686 100.743 83.5367 100.096 84.0139 99.6187C84.4912 99.1415 85.1385 98.8733 85.8134 98.8733H101.083V83.6041C101.083 82.9292 101.351 82.2819 101.828 81.8046C102.305 81.3274 102.953 81.0593 103.628 81.0593Z" fill="#96BA00"/>
</g>
<defs>
<clipPath id="clip0_1209_12909">
<rect width="81.4358" height="81.4358" fill="white" transform="translate(62.9094 60.7003)"/>
</clipPath>
</defs>
</svg>
