<svg width="179" height="123" viewBox="0 0 179 123" fill="none" xmlns="http://www.w3.org/2000/svg">
<path d="M178.972 115.017H0.0854492C0.0854492 119.465 5.75594 122.029 5.75594 122.029C10.3546 123.562 11.5415 123.471 15.9894 123.471H161.099C170.542 123.562 174.374 121.262 174.374 121.262C174.374 121.262 178.972 119.465 178.972 115.017Z" fill="#696B72"/>
<path fill-rule="evenodd" clip-rule="evenodd" d="M17.7533 3.97183C19.9618 1.76335 22.2323 0.164062 26.6801 0.164062H149.665C154.113 0.164063 158.159 0.826725 161.304 3.97183C164.45 7.11693 164.617 9.9453 164.617 14.3932C164.617 14.3932 163.933 19.3252 160.272 19.3252C156.611 19.3252 156.611 14.3932 156.611 14.3932C156.611 12.9105 156.022 11.4886 154.974 10.4403C153.926 9.39191 152.504 8.80294 151.021 8.80294H28.0365C26.5539 8.80294 25.132 9.39191 24.0836 10.4403C23.0353 11.4886 22.4463 12.9105 22.4463 14.3932V101.145H61.0848H99.7232C99.7232 101.145 103.555 101.335 103.555 105.167C103.555 108.999 99.7232 109.427 99.7232 109.427H14.4406V14.3932C14.4406 9.9453 15.2905 6.43464 17.7533 3.97183ZM178.972 115.017H0.0854492C0.0854492 119.465 5.75594 122.029 5.75594 122.029C10.3546 123.562 11.5415 123.471 15.9894 123.471H161.099C170.542 123.562 174.374 121.262 174.374 121.262C174.374 121.262 178.972 119.465 178.972 115.017Z" fill="#696B72"/>
</svg>
