<?xml version="1.0" encoding="UTF-8"?>
<svg id="Layer_5" data-name="Layer 5" xmlns="http://www.w3.org/2000/svg" viewBox="0 0 552.26 115.58">
  <line x1="419.35" y1="4.3" x2="419.35" y2="111.28" fill="none" stroke="#afafaf" stroke-linecap="round" stroke-linejoin="round" stroke-width="1.22"/>
  <g>
    <g>
      <path d="M391.17,1.83c-1.75.96-3.16,2.32-4.13,4.1-1.02,1.79-1.48,3.63-1.48,5.55s.45,3.79,1.46,5.55c.95,1.76,2.34,3.13,4.12,4.1,1.73.97,3.57,1.47,5.5,1.47s3.73-.49,5.52-1.47c1.76-.96,3.09-2.34,4.09-4.1.94-1.77,1.46-3.6,1.46-5.55s-.51-3.76-1.47-5.55c-1-1.78-2.38-3.13-4.17-4.1-1.74-.95-3.57-1.44-5.43-1.44s-3.7.48-5.47,1.44ZM400.98,3.78c1.43.75,2.53,1.86,3.32,3.27.79,1.43,1.19,2.91,1.19,4.43s-.4,3.03-1.18,4.43c-.8,1.41-1.89,2.51-3.27,3.28-1.44.79-2.9,1.18-4.41,1.18s-3.01-.39-4.4-1.18c-1.44-.77-2.52-1.88-3.3-3.28-.79-1.4-1.17-2.87-1.17-4.43s.4-3,1.19-4.43c.79-1.42,1.88-2.52,3.32-3.27,1.41-.76,2.87-1.16,4.36-1.16s2.91.4,4.35,1.16ZM394.41,18.15v-5.54h1.09c.65.19,1.14.43,1.49.73.37.45.97,1.4,1.85,2.86l1.09,1.95h2.24l-1.41-2.43c-.65-1.13-1.23-1.97-1.67-2.45-.26-.25-.58-.47-.98-.66.88-.07,1.6-.5,2.14-1.28.51-.76.82-1.65.82-2.67,0-.74-.22-1.41-.55-2.08-.35-.64-.86-1.09-1.45-1.35-.62-.27-1.57-.4-2.93-.4h-3.96v13.31h2.22ZM394.41,7.05h1.86c.8,0,1.33.07,1.64.2.29.12.49.32.68.58.16.25.25.56.25.86,0,.53-.16.92-.5,1.22-.37.32-1.02.46-1.97.46h-1.96v-3.33Z" fill="#4c5152" fill-rule="evenodd"/>
      <path d="M4.3,112.22c2.38,1.29,5.23,1.93,8.55,1.93s6.13-.64,8.51-1.93c2.38-1.3,3.56-3.12,3.56-5.49v-33.36h15.4c11.49,0,20.72-2.9,27.7-8.73,7.01-5.82,10.5-14.88,10.5-27.15v-.78c0-12.26-3.35-21.26-10.02-27C61.85,3.98,52.97,1.12,41.9,1.12H9.74c-2.71,0-4.87.73-6.53,2.17S.73,6.44.73,8.38v98.34c0,2.38,1.17,4.21,3.56,5.5ZM24.93,22.27h15.41c9.31,0,13.99,5.15,13.99,15.41v1.7c0,10.27-4.68,15.41-13.99,15.41h-15.41V22.27Z" fill="#005a88" fill-rule="evenodd"/>
      <path d="M92.4,112.22c2.39,1.29,5.23,1.93,8.55,1.93s6.14-.65,8.51-1.94c2.38-1.3,3.57-3.12,3.57-5.52v-37.44h10.28l21.27,41.32c1.53,3,4.14,4.51,7.77,4.51s7.05-1.35,10.29-4.03c3.24-2.71,4.88-5.56,4.88-8.55,0-1.14-.28-2.07-.77-2.8l-18.92-34.33c12.54-4.81,18.79-15.21,18.79-31.19,0-22.04-12.74-33.06-38.2-33.06h-32.16c-2.17,0-3.97.73-5.34,2.17-1.43,1.44-2.11,3.15-2.11,5.09v98.34c0,2.38,1.17,4.21,3.56,5.5ZM113.04,22.27h15.4c4.54,0,8.03,1.09,10.41,3.29,2.39,2.19,3.58,5.83,3.58,10.9s-1.19,8.73-3.58,10.92c-2.38,2.19-5.87,3.26-10.41,3.26h-15.4v-28.38Z" fill="#005a88" fill-rule="evenodd"/>
      <path d="M182.57,112.22c2.39,1.29,5.23,1.93,8.53,1.93s6.15-.64,8.54-1.93c2.38-1.3,3.57-3.12,3.57-5.5V8.38c0-2.37-1.19-4.17-3.57-5.4-2.39-1.24-5.23-1.86-8.54-1.86s-6.14.61-8.53,1.86c-2.38,1.23-3.55,3.03-3.55,5.4v98.34c0,2.38,1.17,4.21,3.55,5.5Z" fill="#005a88" fill-rule="evenodd"/>
      <path d="M212.38,12.72l28.92,94.42c.8,2.58,2.7,4.58,5.61,5.96,2.95,1.39,6.35,2.09,10.14,2.09s7.19-.7,10.14-2.09c2.91-1.39,4.8-3.38,5.61-5.96l28.76-94.42c.21-.82.31-1.39.31-1.7,0-2.68-1.68-5-5.03-6.95-3.33-1.98-6.83-2.95-10.43-2.95-4.44,0-7.06,1.51-7.88,4.49l-21.49,79.4L235.41,5.61c-.82-2.98-3.44-4.49-7.87-4.49-3.61,0-7.08.97-10.45,2.95-3.32,1.95-5,4.27-5,6.95,0,.31.1.87.29,1.7Z" fill="#005a88" fill-rule="evenodd"/>
      <path d="M315.56,106.36c6.91,5.89,16.05,8.83,27.46,8.83s20.71-2.93,27.62-8.83c6.9-5.86,10.33-15.1,10.33-27.7v-41.01c0-12.59-3.43-21.81-10.33-27.7-6.91-5.88-16.11-8.83-27.62-8.83s-20.55,2.94-27.46,8.83c-6.9,5.89-10.33,15.11-10.33,27.7v41.01c0,12.6,3.43,21.84,10.33,27.7ZM329.43,37.72c0-10.28,4.54-15.44,13.58-15.44s13.74,5.16,13.74,15.44v40.87c0,10.3-4.61,15.44-13.74,15.44s-13.58-5.14-13.58-15.44v-40.87Z" fill="#005a88" fill-rule="evenodd"/>
    </g>
    <g>
      <path d="M523.59,88.49c-10.78,0-23.63-5.71-24.93-16.75h5.71c2.21,7.66,11.43,11.43,19.22,11.43,13.76,0,22.6-10.52,22.6-22.07s-8.96-21.29-22.6-21.29h-9.35v-16.11h31.94V7.73h-48.04v48.05h26.75c3.64,0,10.13.26,10.13,5.32l.51-.27c0-6.62-4.15-10.38-10.64-10.38h-21.43V13.06h37.39v5.32h-31.94v26.75h15.97c8.7,0,15.96,7.27,15.96,15.97s-6.49,16.74-17.39,16.74c-5.33,0-14.54-3.5-14.54-11.42h-16.11c0,1.91.18,3.68.45,5.38h-21.36l-7.4,5.32h28.82v5.33h-44.15c.78-.65,1.68-1.3,2.6-1.95,15.71-11.95,41.55-31.29,41.55-52.32,0-15.45-10.38-26.36-26.75-26.36-12.85,0-26.75,8.18-26.75,21.82v5.45h16.1c0-7.53,3.64-11.17,10.65-11.17s10.26,3.9,10.26,9.74c0,13.51-25.84,33.9-37.01,42.85v6.62c13.76-10.39,42.72-33.24,42.72-48.69,0-10.38-5.59-15.97-15.97-15.97-6.62,0-15.45,3.12-15.97,11.17h-5.45c0-11.43,11.17-16.5,21.43-16.5,12.85,0,21.29,9.22,21.29,21.04,0,19.34-29.99,41.81-48.04,54.27v5.32h58.82v-3.77c5.7,6.75,14.94,9.82,24.93,9.82,19.35,0,28.57-16.36,28.57-32.72h-.51c0,14.67-11.95,27.39-28.05,27.39Z" fill="#afafaf"/>
      <g>
        <path d="M450.63,113.46v-6.79l-5.65-8.58h3.27l3.83,6.01,3.73-6.01h3.23l-5.67,8.58v6.79h-2.72Z" fill="#afafaf"/>
        <path d="M467.73,113.46v-15.38h9.59v2.5h-6.81v3.81h5.64v2.46h-5.64v4.11h7.09v2.5h-9.87Z" fill="#afafaf"/>
        <path d="M497.59,113.46l-1.12-2.54h-6.83l-1.12,2.54h-3.06l7.37-15.66h.47l7.37,15.66h-3.08ZM490.71,108.5h4.7l-2.35-5.32-2.35,5.32Z" fill="#afafaf"/>
        <path d="M521.09,113.46h-3.43l-4.57-5.71h-.99v5.71h-2.74v-15.38h4.57c3.55,0,5.71,2.11,5.71,4.85,0,2.11-1.38,3.83-3.62,4.5l5.08,6.03ZM512.09,100.51v4.91h1.81c1.92,0,2.91-1.12,2.91-2.44s-.97-2.46-2.91-2.46h-1.81Z" fill="#afafaf"/>
        <path d="M529.19,112.4v-2.93c1.47.95,3.13,1.77,5,1.77,1.46,0,2.39-.78,2.39-2,0-1.32-.99-1.81-3-2.46-2.03-.63-4.37-1.74-4.37-4.78,0-2.76,2.37-4.24,5.08-4.24,2,0,3.55.52,4.5.91v2.95c-1.51-.88-3.1-1.34-4.5-1.34s-2.26.6-2.26,1.7c0,1.27.95,1.77,2.99,2.41,2.02.65,4.39,1.66,4.39,4.83,0,2.89-2.61,4.53-5.19,4.53-2.07,0-3.77-.69-5.02-1.36Z" fill="#afafaf"/>
      </g>
    </g>
  </g>
</svg>