<?xml version="1.0" encoding="utf-8"?>
<!-- Generator: Adobe Illustrator 25.2.3, SVG Export Plug-In . SVG Version: 6.00 Build 0)  -->
<svg version="1.1" id="Layer_1" xmlns="http://www.w3.org/2000/svg" xmlns:xlink="http://www.w3.org/1999/xlink" x="0px" y="0px"
	 viewBox="0 0 595.9 84.1" style="enable-background:new 0 0 595.9 84.1;" xml:space="preserve">
<style type="text/css">
	.st0{fill:#96BA00;}
</style>
<g>
	<path d="M333.6,28.6c-3,0-5.4,1.1-7.3,3.2c-1.8,2.1-2.7,5.7-2.7,10.6c0,4.9,0.9,8.4,2.7,10.5c1.8,2.1,4.3,3.2,7.4,3.2
		c3.2,0,5.7-1,7.5-3.1c1.8-2.1,2.6-5.8,2.6-11.2c0-4.6-0.9-7.9-2.8-10C339.2,29.7,336.7,28.6,333.6,28.6z"/>
	<path d="M344.7,19.1c2.9,1.1,5.4,2.6,7.5,4.7c4.4,4.3,6.5,10.4,6.5,18.2c0,5.7-1,10.3-2.9,13.9c-1.9,3.6-4.7,6.4-8.2,8.4
		c-0.5,0.3-1,0.5-1.5,0.7h17.3V19.1H344.7z"/>
	<path d="M386.1,46.3h-7.6v9.8h7.6c2.6,0,4.4-0.5,5.4-1.4c1.1-0.9,1.6-2.1,1.6-3.7c0-1.4-0.5-2.6-1.6-3.4S388.7,46.3,386.1,46.3z"/>
	<path d="M391.2,32.4c0-1.4-0.5-2.5-1.4-3.3c-0.9-0.8-2.5-1.2-4.8-1.2h-6.6v9.2h6.5c2.3,0,4-0.4,4.9-1.2
		C390.8,35.1,391.2,33.9,391.2,32.4z"/>
	<path d="M397.8,19.1c1.7,0.6,3.1,1.4,4.3,2.5c2.5,2.3,3.7,5.2,3.7,8.6c0,2.9-0.9,5.3-2.7,7.4c-1.2,1.4-2.9,2.4-5.2,3.2
		c3.5,0.8,6,2.3,7.7,4.3c1.6,2,2.5,4.6,2.5,7.7c0,2.5-0.6,4.8-1.7,6.8s-2.8,3.6-4.8,4.7c-0.5,0.3-1.2,0.6-1.9,0.8h13.6V19.1H397.8z"
		/>
	<path d="M23,19.1h43.2v11.3H51.7V65H37.5V30.4H23V19.1z"/>
	<path d="M69.6,65V19.1h23.7c4.4,0,7.7,0.4,10.1,1.1c2.3,0.8,4.2,2.1,5.6,4.2s2.1,4.5,2.1,7.4c0,2.5-0.5,4.7-1.6,6.6
		c-1.1,1.8-2.6,3.3-4.5,4.5c-1.2,0.7-2.9,1.3-5,1.8c1.7,0.6,2.9,1.1,3.7,1.7c0.5,0.4,1.3,1.2,2.3,2.4c1,1.2,1.7,2.2,2,2.9l6.9,13.3
		h-16l-7.6-14c-1-1.8-1.8-3-2.6-3.5c-1-0.7-2.2-1.1-3.5-1.1h-1.3V65H69.6z M83.8,37.7h6c0.6,0,1.9-0.2,3.8-0.6
		c0.9-0.2,1.7-0.7,2.3-1.4c0.6-0.8,0.9-1.7,0.9-2.7c0-1.5-0.5-2.6-1.4-3.4s-2.7-1.2-5.3-1.2h-6.2V37.7z"/>
	<path d="M144.3,57.5h-16.1L126,65h-14.5l17.3-45.9h15.5L161.5,65h-14.9L144.3,57.5z M141.4,47.5L136.3,31l-5,16.5H141.4z"/>
	<path d="M160.3,49.8l13.5-0.8c0.3,2.2,0.9,3.9,1.8,5c1.5,1.9,3.6,2.8,6.3,2.8c2,0,3.6-0.5,4.7-1.4c1.1-1,1.6-2.1,1.6-3.3
		c0-1.2-0.5-2.3-1.6-3.2s-3.5-1.8-7.3-2.7c-6.2-1.4-10.7-3.3-13.3-5.6c-2.7-2.3-4-5.3-4-8.9c0-2.4,0.7-4.6,2.1-6.7
		c1.4-2.1,3.4-3.8,6.2-5c2.7-1.2,6.5-1.8,11.3-1.8c5.9,0,10.3,1.1,13.4,3.3c3.1,2.2,4.9,5.7,5.5,10.4l-13.4,0.8
		c-0.4-2.1-1.1-3.6-2.2-4.5c-1.1-0.9-2.7-1.4-4.7-1.4c-1.7,0-2.9,0.4-3.7,1c-0.8,0.7-1.3,1.6-1.3,2.6c0,0.7,0.3,1.4,1,2
		c0.7,0.6,2.3,1.2,4.8,1.7c6.2,1.3,10.7,2.7,13.3,4.1c2.7,1.4,4.6,3.1,5.9,5.1c1.2,2,1.8,4.3,1.8,6.8c0,2.9-0.8,5.7-2.4,8.1
		c-1.6,2.5-3.9,4.4-6.8,5.7c-2.9,1.3-6.6,1.9-11.1,1.9c-7.8,0-13.2-1.5-16.2-4.5C162.4,58.3,160.7,54.5,160.3,49.8z"/>
	<polygon points="271.3,65 262.2,29.6 262.2,65 	"/>
	<polygon points="292.1,65 292.1,29.6 283.1,65 	"/>
	<polygon points="277.2,47.6 284.5,19.1 269.9,19.1 	"/>
	<path d="M312,56.5c-2.2-3.8-3.3-8.5-3.3-14.1c0-7.9,2.2-14,6.6-18.4c2.1-2.1,4.6-3.7,7.6-4.8h-18.4V65h17.1
		c-0.3-0.1-0.5-0.2-0.8-0.3C317.1,63,314.2,60.2,312,56.5z"/>
	<polygon points="250,65 250,19.1 233.9,19.1 233.9,35.2 219.4,35.2 219.4,19.1 206,19.1 206,65 219.4,65 219.4,46.5 233.9,46.5 
		233.9,65 	"/>
	<g>
		<g>
			<path class="st0" d="M418.3,52.2h13.6V65h-13.6V52.2z"/>
			<path class="st0" d="M437.2,19.1h38v9.8h-23.8v7.3h22.1v9.4h-22.1v9.1h24.5V65h-38.7V19.1z"/>
			<path class="st0" d="M511,46.2l12.4,3.8c-0.8,3.5-2.2,6.4-3.9,8.7c-1.8,2.3-4,4.1-6.7,5.3s-6.1,1.8-10.2,1.8
				c-5,0-9.1-0.7-12.2-2.2c-3.2-1.5-5.9-4-8.2-7.7s-3.4-8.3-3.4-14c0-7.6,2-13.4,6.1-17.5c4-4.1,9.8-6.1,17.2-6.1
				c5.8,0,10.3,1.2,13.6,3.5s5.8,5.9,7.4,10.8l-12.5,2.8c-0.4-1.4-0.9-2.4-1.4-3.1c-0.8-1.1-1.8-1.9-2.9-2.5s-2.4-0.9-3.9-0.9
				c-3.2,0-5.7,1.3-7.4,3.9c-1.3,1.9-1.9,4.9-1.9,9c0,5.1,0.8,8.6,2.3,10.5s3.7,2.8,6.5,2.8c2.7,0,4.8-0.8,6.2-2.3
				C509.3,51.4,510.3,49.1,511,46.2z"/>
			<path class="st0" d="M525.3,42.1c0-7.5,2.1-13.3,6.3-17.5s10-6.3,17.5-6.3c7.6,0,13.5,2.1,17.7,6.2c4.1,4.1,6.2,9.9,6.2,17.3
				c0,5.4-0.9,9.8-2.7,13.2c-1.8,3.4-4.4,6.1-7.8,8c-3.4,1.9-7.7,2.9-12.8,2.9c-5.2,0-9.5-0.8-12.9-2.5c-3.4-1.7-6.1-4.3-8.3-7.8
				C526.4,51.9,525.3,47.5,525.3,42.1z M539.5,42.2c0,4.6,0.9,8,2.6,10c1.7,2,4.1,3,7,3c3.1,0,5.4-1,7.1-3c1.7-2,2.5-5.5,2.5-10.7
				c0-4.3-0.9-7.5-2.6-9.5c-1.7-2-4.1-3-7.1-3c-2.9,0-5.2,1-6.9,3C540.4,34.1,539.5,37.5,539.5,42.2z"/>
		</g>
	</g>
</g>
</svg>
