<svg viewBox="0 0 36 36" fill="none" xmlns="http://www.w3.org/2000/svg">
  <path fill-rule="evenodd" clip-rule="evenodd" d="M8.4375 2.25C6.8842 2.25 5.625 3.5092 5.625 5.0625V30.9375C5.625 32.4908 6.8842 33.75 8.4375 33.75H27.5625C29.1158 33.75 30.375 32.4908 30.375 30.9375V19.125C30.375 16.0184 27.8566 13.5 24.75 13.5H21.9375C20.3842 13.5 19.125 12.2408 19.125 10.6875V7.875C19.125 4.7684 16.6066 2.25 13.5 2.25H8.4375ZM11.25 22.5C11.25 21.8787 11.7537 21.375 12.375 21.375H23.625C24.2463 21.375 24.75 21.8787 24.75 22.5C24.75 23.1213 24.2463 23.625 23.625 23.625H12.375C11.7537 23.625 11.25 23.1213 11.25 22.5ZM12.375 25.875C11.7537 25.875 11.25 26.3787 11.25 27C11.25 27.6213 11.7537 28.125 12.375 28.125H18C18.6213 28.125 19.125 27.6213 19.125 27C19.125 26.3787 18.6213 25.875 18 25.875H12.375Z" fill="#005C4C"/>
  <path d="M19.4568 2.72386C20.6519 4.10472 21.375 5.90542 21.375 7.875V10.6875C21.375 10.9982 21.6268 11.25 21.9375 11.25H24.75C26.7196 11.25 28.5203 11.9731 29.9011 13.1682C28.5693 8.06981 24.5552 4.05566 19.4568 2.72386Z" fill="#005C4C"/>
</svg>
