<svg width="86" height="88" viewBox="0 0 86 88" fill="none" xmlns="http://www.w3.org/2000/svg">
<path d="M59.5 90.6875C53.3503 90.6875 47.4525 88.2445 43.104 83.896C38.7555 79.5475 36.3125 73.6497 36.3125 67.5C36.3125 61.3503 38.7555 55.4525 43.104 51.104C47.4525 46.7555 53.3503 44.3125 59.5 44.3125C65.6497 44.3125 71.5475 46.7555 75.896 51.104C80.2445 55.4525 82.6875 61.3503 82.6875 67.5C82.6875 73.6497 80.2445 79.5475 75.896 83.896C71.5475 88.2445 65.6497 90.6875 59.5 90.6875ZM59.5 94C66.5282 94 73.2686 91.208 78.2383 86.2383C83.208 81.2686 86 74.5282 86 67.5C86 60.4718 83.208 53.7314 78.2383 48.7617C73.2686 43.792 66.5282 41 59.5 41C52.4718 41 45.7314 43.792 40.7617 48.7617C35.792 53.7314 33 60.4718 33 67.5C33 74.5282 35.792 81.2686 40.7617 86.2383C45.7314 91.208 52.4718 94 59.5 94Z" fill="#005C4C"/>
<path d="M59.5 54.25C59.9393 54.25 60.3605 54.4245 60.6711 54.7351C60.9818 55.0457 61.1562 55.467 61.1562 55.9062V65.8438H71.0938C71.533 65.8438 71.9543 66.0182 72.2649 66.3289C72.5755 66.6395 72.75 67.0607 72.75 67.5C72.75 67.9393 72.5755 68.3605 72.2649 68.6711C71.9543 68.9818 71.533 69.1562 71.0938 69.1562H61.1562V79.0938C61.1562 79.533 60.9818 79.9543 60.6711 80.2649C60.3605 80.5755 59.9393 80.75 59.5 80.75C59.0607 80.75 58.6395 80.5755 58.3289 80.2649C58.0182 79.9543 57.8438 79.533 57.8438 79.0938V69.1562H47.9062C47.467 69.1562 47.0457 68.9818 46.7351 68.6711C46.4245 68.3605 46.25 67.9393 46.25 67.5C46.25 67.0607 46.4245 66.6395 46.7351 66.3289C47.0457 66.0182 47.467 65.8438 47.9062 65.8438H57.8438V55.9062C57.8438 55.467 58.0182 55.0457 58.3289 54.7351C58.6395 54.4245 59.0607 54.25 59.5 54.25Z" fill="#005C4C"/>
<path fill-rule="evenodd" clip-rule="evenodd" d="M5.82305 25.9846H3.1149C2.74201 25.985 2.37358 26.0657 2.03473 26.2214C1.69587 26.377 1.39456 26.6039 1.15132 26.8865C0.90808 27.1691 0.728633 27.5009 0.625209 27.8591C0.521786 28.2174 0.496817 28.5937 0.552005 28.9625L7.67 76.4279C7.94685 78.2695 8.87492 79.9507 10.2857 81.1663C11.6965 82.382 14.2336 82.5323 16.0959 82.5339C16.0959 82.5339 22.9598 82.5 26.0005 82.5C29.0412 82.5 29.6341 80.9075 29.6341 80.3884C29.6341 79.8694 29.6341 77.793 26.0005 77.831C22.3669 77.869 15.3587 77.865 15.3587 77.865C14.7377 77.8644 14.1375 77.641 13.6672 77.2354C13.1969 76.8299 12.8877 76.2691 12.7958 75.6549L6.12396 31.1726H62.3519L61.9597 35.4809C61.9597 35.4809 61.9597 38.0763 64.036 38.5954C66.1123 39.1145 67.0005 36 67.0005 36L67.8611 31.1726C67.8611 31.1726 67.9645 28.2174 67.8611 27.8591C67.7576 27.5009 67.5782 27.1691 67.3349 26.8865C67.0917 26.6039 66.7904 26.377 66.4515 26.2214C66.1127 26.0657 65.7443 25.985 65.3714 25.9846H62.6632C62.0265 18.8867 58.7568 12.284 53.4974 7.47533C48.2379 2.66663 41.3695 0 34.2431 0C27.1168 0 20.2483 2.66663 14.9889 7.47533C9.7295 12.284 6.45982 18.8867 5.82305 25.9846ZM10.9052 25.9188H57.622C58.1413 25.9188 53.9893 4.6365 34.2638 4.6365C12.4627 5.67466 10.3861 25.9188 10.9052 25.9188Z" fill="#6B6F74"/>
</svg>
