<svg width="94" height="86" viewBox="0 0 94 86" fill="none" xmlns="http://www.w3.org/2000/svg">
<path d="M35.0687 78.6641H10.5177C4.87504 78.6641 0.288086 74.0501 0.288086 68.3834V19.0363C0.288086 13.3696 4.87504 8.75563 10.5177 8.75563H71.8953C77.538 8.75563 82.1249 13.3696 82.1249 19.0363V35.4853C82.1249 36.6244 81.2083 37.5415 80.079 37.5415C78.9496 37.5415 78.0331 36.6244 78.0331 35.4853V19.0363C78.0331 15.6354 75.2793 12.8679 71.8953 12.8679H10.5177C7.13374 12.8679 4.37993 15.6354 4.37993 19.0363V68.3834C4.37993 71.7843 7.13374 74.5518 10.5177 74.5518H35.0687C36.1981 74.5518 37.1147 75.473 37.1147 76.608C37.1147 77.743 36.1981 78.6641 35.0687 78.6641Z" fill="#6B6F74"/>
<path d="M80.079 29.3172H2.33401C1.20466 29.3172 0.288086 28.396 0.288086 27.261C0.288086 26.1261 1.20466 25.2049 2.33401 25.2049H80.079C81.2083 25.2049 82.1249 26.1261 82.1249 27.261C82.1249 28.396 81.2083 29.3172 80.079 29.3172Z" fill="#6B6F74"/>
<path d="M18.7016 21.0926C17.5722 21.0926 16.6557 20.1714 16.6557 19.0365V2.58738C16.6557 1.4524 17.5722 0.53125 18.7016 0.53125C19.8309 0.53125 20.7475 1.4524 20.7475 2.58738V19.0365C20.7475 20.1714 19.8309 21.0926 18.7016 21.0926Z" fill="#6B6F74"/>
<path d="M63.7119 21.0927C62.5826 21.0927 61.666 20.1715 61.666 19.0365V2.58745C61.666 1.45246 62.5826 0.531311 63.7119 0.531311C64.8412 0.531311 65.7578 1.45246 65.7578 2.58745V19.0365C65.7578 20.1715 64.8412 21.0927 63.7119 21.0927Z" fill="#6B6F74"/>
<path d="M69.109 42.1356C68.5522 42.0944 67.9927 42.0736 67.4316 42.0736V38.8005C68.0728 38.8005 68.7122 38.8243 69.3486 38.8715L69.109 42.1356ZM75.6376 43.6088C74.5928 43.2038 73.5198 42.8768 72.4273 42.6302L73.141 39.4368C74.3896 39.7185 75.6159 40.0923 76.8098 40.5551L75.6376 43.6088ZM80.0991 45.9348C79.6326 45.6216 79.1559 45.3265 78.6701 45.05L80.2756 42.2022C80.8308 42.5183 81.3756 42.8554 81.9087 43.2134C82.4418 43.5713 82.9603 43.948 83.4634 44.3425L81.4594 46.9228C81.0193 46.5776 80.5656 46.248 80.0991 45.9348ZM86.0733 51.7923C85.4285 50.8724 84.7172 50.0014 83.9451 49.1865L86.3041 46.9297C87.1865 47.861 87.9995 48.8563 88.7363 49.9077L86.0733 51.7923ZM88.4968 56.217C88.2821 55.6962 88.0489 55.1847 87.7979 54.6836L90.7074 53.212C90.9943 53.7848 91.2608 54.3693 91.5062 54.9645C91.7515 55.5597 91.9744 56.1624 92.1745 56.7712L89.0817 57.7979C88.9065 57.2652 88.7116 56.7379 88.4968 56.217ZM90.2256 64.4225C90.1981 63.2977 90.0882 62.1764 89.8968 61.0678L93.1061 60.5083C93.3249 61.7752 93.4505 63.0567 93.4819 64.3422L90.2256 64.4225ZM89.7943 69.4545C89.9038 68.9016 89.9927 68.3461 90.061 67.7893L93.2938 68.19C93.2156 68.8264 93.1141 69.4612 92.989 70.093C92.8639 70.7249 92.716 71.3504 92.5458 71.9684L89.4065 71.0955C89.5555 70.5548 89.6849 70.0074 89.7943 69.4545ZM86.695 77.2422C87.294 76.2916 87.8226 75.2979 88.2764 74.2693L91.2542 75.5957C90.7356 76.7712 90.1315 77.9069 89.4469 78.9932L86.695 77.2422ZM83.5543 81.1854C83.951 80.7868 84.3319 80.3745 84.6966 79.9497L87.1631 82.0876C86.7463 82.5731 86.3109 83.0442 85.8575 83.4998L83.5543 81.1854Z" fill="#96BA00"/>
<path d="M67.4316 42.0736C63.682 42.0736 59.9903 43.0028 56.6834 44.7789C53.3765 46.555 50.5566 49.1232 48.4734 52.256C46.3903 55.3888 45.1081 58.9894 44.7406 62.7391C44.3731 66.4887 44.9315 70.2715 46.3664 73.7525C47.8013 77.2335 50.0684 80.3051 52.9669 82.6953C55.8654 85.0856 59.3058 86.7207 62.9834 87.4557C66.661 88.1908 70.4622 88.0031 74.0504 86.9094C77.6385 85.8157 80.9029 83.8496 83.5543 81.1854L85.8575 83.4998C82.8273 86.5446 79.0966 88.7915 74.9959 90.0415C70.8951 91.2915 66.5509 91.5059 62.3479 90.6658C58.145 89.8258 54.2131 87.9571 50.9006 85.2254C47.588 82.4937 44.997 78.9833 43.3571 75.005C41.7172 71.0268 41.079 66.7035 41.499 62.4183C41.9191 58.133 43.3843 54.0179 45.7651 50.4376C48.1459 46.8573 51.3687 43.9222 55.1479 41.8923C58.9272 39.8625 63.1464 38.8005 67.4316 38.8005V42.0736Z" fill="#96BA00"/>
<path d="M65.803 48.6196C66.7025 48.6196 67.4316 49.3523 67.4316 50.2561V67.3081L78.0114 73.3829C78.7924 73.8314 79.0637 74.831 78.6175 75.6158C78.1712 76.4005 77.1763 76.6732 76.3954 76.2247L64.995 69.6787C64.4875 69.3873 64.1744 68.8451 64.1744 68.2578V50.2561C64.1744 49.3523 64.9035 48.6196 65.803 48.6196Z" fill="#96BA00"/>
</svg>
