<svg width="29" height="29" viewBox="0 0 29 29" fill="none" xmlns="http://www.w3.org/2000/svg">
<path d="M0 2.07713C0 0.929813 0.953375 0 2.12969 0H26.8703C28.0466 0 29 0.929813 29 2.07713V26.9229C29 28.0702 28.0466 29 26.8703 29H2.12969C0.953375 29 0 28.0702 0 26.9229V2.07713ZM8.95919 24.2766V11.1813H4.60738V24.2766H8.95919ZM6.78419 9.39237C8.30125 9.39237 9.24556 8.38825 9.24556 7.13037C9.21837 5.84531 8.30306 4.86838 6.81319 4.86838C5.32331 4.86838 4.35 5.84713 4.35 7.13037C4.35 8.38825 5.29431 9.39237 6.75519 9.39237H6.78419ZM15.6799 24.2766V16.9632C15.6799 16.5717 15.7089 16.1802 15.8249 15.9011C16.1385 15.1199 16.8544 14.3097 18.0579 14.3097C19.633 14.3097 20.2619 15.5096 20.2619 17.2713V24.2766H24.6138V16.7656C24.6138 12.7419 22.4678 10.8714 19.604 10.8714C17.2949 10.8714 16.2599 12.1401 15.6799 13.0337V13.079H15.6509C15.6606 13.0639 15.6702 13.0488 15.6799 13.0337V11.1813H11.3299C11.3843 12.4102 11.3299 24.2766 11.3299 24.2766H15.6799Z" fill="#696B72"/>
</svg>
