<svg width="127" height="85" viewBox="0 0 127 85" fill="none" xmlns="http://www.w3.org/2000/svg">
<path d="M61.4022 89.8558C61.0718 89.8558 60.7668 89.7792 60.5127 89.6514H82.1661V87.4038C82.1661 86.7652 82.1407 86.1778 82.0898 85.6159H122.118L121.813 83.4448C121 77.5447 118.484 72.0788 114.494 67.6856C108.953 61.5556 101.049 58.0309 92.7894 58.0309C86.2579 58.0309 79.955 60.2019 74.8466 64.212C74.0588 63.0626 73.2201 61.9388 72.3306 60.866C74.872 58.8993 77.6676 57.2902 80.6666 56.1153L83.8943 54.8382L81.0986 52.7693C79.4467 51.5689 78.0235 50.113 76.8036 48.4528C73.6775 44.1618 72.4068 38.9002 73.2201 33.6386C74.0333 28.3771 76.829 23.754 81.0986 20.6124C84.5296 18.0838 88.5706 16.7556 92.7894 16.7556C99.0923 16.7556 105.09 19.7951 108.801 24.9034C111.927 29.1944 113.198 34.456 112.384 39.7175C111.571 44.9791 108.775 49.6022 104.506 52.7438L101.71 54.8127L104.963 56.0897C111.291 58.5673 116.654 62.8327 120.466 68.4519C124.278 74.071 126.337 80.6352 126.337 87.4549V87.7103C126.337 88.8852 125.397 89.8302 124.227 89.8302H61.4022V89.8558ZM92.7894 21.0466C84.1992 21.0722 77.2102 28.0961 77.1848 36.7292C77.1848 45.3878 84.1738 52.4117 92.7894 52.4117C101.405 52.4117 108.394 45.3878 108.394 36.7292C108.394 28.0706 101.405 21.0466 92.7894 21.0466Z" fill="#005C4C"/>
<path d="M2.10943 89.8555C0.940346 89.8555 0 88.9104 0 87.7355V87.4035C0.0254148 69.7287 11.2079 53.995 27.8292 48.2481L31.5905 46.9455L28.2104 44.8256C25.1606 42.8844 22.5175 40.2536 20.586 37.1631C17.155 31.6716 16.0621 25.184 17.5108 18.8497C18.9594 12.5409 22.7462 7.15166 28.2104 3.70354C32.0734 1.27708 36.4956 0 41.0194 0C49.3809 0 57.0561 4.23991 61.4783 11.366C64.9093 16.8575 66.0021 23.3451 64.5535 29.6794C63.1049 35.9882 59.3181 41.3774 53.8539 44.8256L50.4483 46.9711L54.2605 48.2737C70.9834 53.9439 82.2422 69.6776 82.293 87.429V87.7611C82.293 88.936 81.3527 89.881 80.1836 89.881H2.10943V89.8555ZM41.0194 50.1893C22.06 50.1893 6.27745 64.5182 4.29509 83.4956L4.06636 85.6155H78.0233L77.7946 83.4956C75.9901 66.1273 62.1391 52.1816 44.8571 50.3936C43.5863 50.2659 42.2902 50.1893 41.0194 50.1893ZM41.0448 4.26545C30.0657 4.26545 21.1197 13.2561 21.0943 24.2901V24.3156C21.0943 35.3752 30.0402 44.3658 41.0448 44.3658C52.0494 44.3658 60.9954 35.3752 60.9954 24.3156C60.9954 13.2561 52.0494 4.26545 41.0448 4.26545Z" fill="#6B6F74"/>
</svg>
